<?xml version="1.0" encoding="UTF-8" standalone="yes"?>
<svg xmlns="http://www.w3.org/2000/svg" xmlns:xlink="http://www.w3.org/1999/xlink" id="J1_container" x="0" y="0" viewBox="-1.499850 -1.499850 265.999700 134.499700" width="265.999700mm" height="134.499700mm" depth="0.3" material="3mm kiri">
<!-- dimensions in paths are in millimeters -->
<g transform="translate(0,131.5) scale(1,-1)">
  <g class="production_part_container" id="J1_container" depth="0.3" material="3mm kiri">
    <path class="production_part_label" id="J1_label" stroke="#00FF00" stroke-width="0.25" fill="none" style="stroke:#00FF00;" d="M0,0M1.28574,2.7L1.28574,0.64287L1.15722,0.25704L1.0287,0.12852L0.77166,2.77555756156289e-16L0.51435,2.77555756156289e-16L0.25731,0.12852L0.12879,0.25704L3.33066907387547e-16,0.64287L3.33066907387547e-16,0.89991M1.96074,2.18565L2.21805,2.31417L2.60361,2.7L2.60361,0M2.60361,-0.81L0,-0.81M0.520722,-0.27L0,-0.81L0.520722,-1.35"/>
    <path offsetable="1" class="production_part_contour" id="J1" stroke="#F6921E" stroke-width="0.25" fill="none" fill-opacity="0.5" style="stroke:#F6921E;" d="M0,0L37,0L37,94.4999999999999L226,94.4999999999999L226,0L263,0L263,9.78422743170704L262.738349631217,9.76707796049009L262.129970435648,9.72720268130777L261.521591240079,9.68732740212545L260.91321204451,9.64745212294313L260.4061924793,9.61422030492415A1.57814999999999,1.57814999999999,0,1,0,257.262936871098,9.40820044784921L257.066727483408,12.401777217565A1.57814999999999,1.57814999999999,0,1,0,260.209983091609,12.6077970746399L260.71700265682,12.6410288926589L261.325381852389,12.6809041718412L261.933761047957,12.7207794510236L262.542140243526,12.7606547302059L263,12.7906644441289L263,32.2907344661633L262.424608601185,32.1762820008552L261.819357761128,32.0558901234008L261.21410692107,31.9354982459465L260.672075513995,31.8276814955711A1.57814999999999,1.57814999999999,0,1,0,257.582601880725,31.2131469812205L256.997330914677,34.1555028224301A1.57814999999999,1.57814999999999,0,1,0,260.086804547947,34.7700373367808L260.628835955022,34.8778540871562L261.234086795079,34.9982459646105L261.839337635137,35.1186378420649L262.444588475194,35.2390297195192L263,35.3495079407882L263,54.6360300235887L262.505977438657,54.4683319611661L261.897346758678,54.2617296847727L261.2887160787,54.0551274083792L260.680085398722,53.8485251319857L260.619761906741,53.8280480657233A1.57815000000001,1.57815000000001,0,1,0,257.636931998832,52.8155137500185L256.672613602922,55.6563041385037A1.57815000000001,1.57815000000001,0,1,0,259.655443510832,56.6688384542086L259.715767002813,56.689315520471L260.324397682791,56.8959177968645L260.933028362769,57.102520073258L261.541659042747,57.3091223496514L262.150289722725,57.5157246260449L262.758920402703,57.7223269024384L263,57.8041623984658L263,76.7043315392714L262.894041463998,76.6520785718931L262.343487419103,76.38057536287L261.792933374208,76.1090721538469L261.242379329313,75.8375689448238L260.764204195769,75.6017590648751A1.57815,1.57815,0,1,0,257.939055059942,74.2085496906852L256.612188989285,76.8991679152832A1.57814999999998,1.57814999999998,0,1,0,259.437338125112,78.2923772894731L259.915513258656,78.5281871694218L260.466067303551,78.7996903784449L261.016621348446,79.071193587468L261.567175393341,79.3426967964911L262.117729438236,79.6142000055142L262.668283483132,79.8857032145373L263,80.04928769757L263,98.3346605376892L262.606094631648,98.0714613851944L262.058115167262,97.7053132130734L261.510135702876,97.3391650409525L260.962156238491,96.9730168688315L260.841388195315,96.8923222422385A1.57814999999998,1.57814999999998,0,1,0,258.222258916562,95.1422760082267L256.555548217504,97.6366848451343A1.57814999999999,1.57814999999999,0,1,0,259.174677496256,99.386731079146L259.295445539432,99.467425705739L259.843425003817,99.83357387786L260.391404468203,100.199722049981L260.939383932589,100.565870222102L261.487363396974,100.932018394223L262.03534286136,101.298166566344L262.583322325745,101.664314738465L263,101.9427298593L263,119.280829582191L262.983070532387,119.265982837564L262.482918014688,118.827360851635L261.982765496989,118.388738865706L261.48261297929,117.950116879778L260.982460461591,117.511494893849L260.849993266654,117.395324281771A1.57815,1.57815,0,1,0,258.481697873095,115.318384964206L256.503660427795,117.573904386642A1.57815,1.57815,0,1,0,258.871955821354,119.650843704208L259.00442301629,119.767014316286L259.504575533989,120.205636302214L260.004728051689,120.644258288143L260.504880569388,121.082880274072L261.005033087087,121.52150226L261.505185604786,121.960124245929L262.005338122485,122.398746231858L262.505490640184,122.837368217786L263,123.271041287075L263,131.5L254.771041287071,131.5L254.337368217783,131.005490640184L253.898746231854,130.505338122485L253.460124245925,130.005185604786L253.021502259997,129.505033087087L252.582880274068,129.004880569388L252.14425828814,128.504728051689L251.705636302211,128.00457553399L251.267014316282,127.50442301629L251.150843704205,127.371955821354A1.57815000000002,1.57815000000002,0,1,0,249.07390438664,125.003660427795L246.818384964202,126.981697873095A1.57815000000002,1.57815000000002,0,1,0,248.895324281767,129.349993266654L249.011494893845,129.48246046159L249.450116879774,129.982612979289L249.888738865702,130.482765496989L250.327360851631,130.982918014688L250.76598283756,131.483070532387L250.780829582188,131.5L233.442729859302,131.5L233.164314738467,131.083322325745L232.798166566346,130.53534286136L232.432018394225,129.987363396974L232.065870222104,129.439383932589L231.699722049983,128.891404468203L231.333573877862,128.343425003817L230.967425705741,127.795445539432L230.886731079148,127.674677496256A1.57815,1.57815,0,1,0,229.136684845136,125.055548217503L226.642276008228,126.722258916563A1.57815000000001,1.57815000000001,0,1,0,228.39232224224,129.341388195315L228.473016868833,129.462156238491L228.839165040954,130.010135702876L229.205313213075,130.558115167262L229.571461385196,131.106094631648L229.834660537691,131.5L211.549287697573,131.5L211.38570321454,131.168283483131L211.114200005517,130.617729438236L210.842696796494,130.067175393341L210.57119358747,129.516621348446L210.299690378447,128.966067303551L210.028187169424,128.415513258655L209.792377289475,127.937338125112A1.57815000000001,1.57815000000001,0,1,0,208.399167915285,125.112188989284L205.708549690687,126.439055059942A1.57814999999999,1.57814999999999,0,1,0,207.101759064877,129.264204195769L207.337568944826,129.742379329313L207.609072153849,130.292933374208L207.880575362873,130.843487419103L208.152078571896,131.394041463998L208.204331539274,131.5L189.304162398464,131.5L189.222326902437,131.258920402703L189.015724626043,130.650289722725L188.80912234965,130.041659042747L188.602520073256,129.433028362769L188.395917796863,128.824397682791L188.18931552047,128.215767002813L188.168838454207,128.155443510832A1.57815,1.57815,0,1,0,187.156304138503,125.172613602922L184.315513750017,126.136931998832A1.57815,1.57815,0,1,0,185.328048065722,129.119761906741L185.348525131984,129.180085398722L185.555127408378,129.7887160787L185.761729684771,130.397346758678L185.968331961165,131.005977438656L186.136030023587,131.5L166.84950794079,131.5L166.73902971952,130.944588475193L166.618637842066,130.339337635136L166.498245964612,129.734086795079L166.377854087157,129.128835955021L166.270037336782,128.586804547947A1.57815,1.57815,0,1,0,165.655502822431,125.497330914677L162.713146981221,126.082601880725A1.57815,1.57815,0,1,0,163.327681495572,129.172075513995L163.435498245948,129.71410692107L163.555890123402,130.319357761127L163.676282000856,130.924608601184L163.790734466165,131.5L144.29066444413,131.5L144.260654730206,131.042140243526L144.220779451024,130.433761047957L144.180904171842,129.825381852389L144.141028892659,129.21700265682L144.10779707464,128.709983091609A1.57815,1.57815,0,1,0,143.901777217565,125.566727483408L140.908200447849,125.762936871098A1.57815,1.57815,0,1,0,141.114220304924,128.9061924793L141.147452122943,129.41321204451L141.187327402126,130.021591240079L141.227202681308,130.629970435648L141.267077960491,131.238349631217L141.284227431708,131.5L121.715772568293,131.5L121.73292203951,131.238349631217L121.772797318693,130.629970435648L121.812672597875,130.021591240079L121.852547877058,129.41321204451L121.885779695077,128.9061924793A1.57815,1.57815,0,1,0,122.091799552152,125.762936871098L119.098222782436,125.566727483408A1.57815,1.57815,0,1,0,118.892202925361,128.709983091609L118.858971107342,129.21700265682L118.819095828159,129.825381852389L118.779220548977,130.433761047957L118.739345269794,131.042140243526L118.709335555871,131.5L99.209265533835,131.5L99.323717999144,130.924608601185L99.444109876598,130.319357761128L99.564501754052,129.71410692107L99.672318504428,129.172075513995A1.57815,1.57815,0,1,0,100.286853018779,126.082601880725L97.344497177569,125.497330914677A1.57815,1.57815,0,1,0,96.729962663218,128.586804547947L96.622145912843,129.128835955022L96.501754035388,129.734086795079L96.381362157934,130.339337635137L96.26097028048,130.944588475194L96.15049205921,131.5L76.8639699764113,131.5L77.0316680388339,131.005977438657L77.2382703152273,130.397346758678L77.4448725916208,129.7887160787L77.6514748680143,129.180085398722L77.6719519342767,129.119761906741A1.57815,1.57815,0,1,0,78.6844862499816,126.136931998832L75.8436958614963,125.172613602922A1.57815,1.57815,0,1,0,74.8311615457914,128.155443510832L74.810684479529,128.215767002813L74.6040822031355,128.824397682791L74.397479926742,129.433028362769L74.1908776503486,130.041659042747L73.9842753739551,130.650289722725L73.7776730975616,131.258920402703L73.6958376015342,131.5L54.7956684607278,131.5L54.8479214281065,131.394041463997L55.1194246371296,130.843487419102L55.3909278461527,130.292933374207L55.6624310551758,129.742379329312L55.8982409351244,129.264204195769A1.57815,1.57815,0,1,0,57.2914503093145,126.439055059942L54.6008320847165,125.112188989284A1.57815,1.57815,0,1,0,53.2076227105264,127.937338125112L52.9718128305778,128.415513258655L52.7003096215547,128.96606730355L52.4288064125316,129.516621348445L52.1573032035085,130.06717539334L51.8857999944854,130.617729438235L51.6142967854623,131.16828348313L51.450712302429,131.5L33.1653394623107,131.5L33.4285386148056,131.106094631648L33.7946867869265,130.558115167262L34.1608349590475,130.010135702876L34.5269831311685,129.462156238491L34.6076777577615,129.341388195315A1.57815,1.57815,0,1,0,36.3577239917733,126.722258916562L33.8633151548657,125.055548217504A1.57815,1.57815,0,1,0,32.1132689208539,127.674677496257L32.0325742942609,127.795445539432L31.6664261221399,128.343425003817L31.300277950019,128.891404468203L30.934129777898,129.439383932589L30.567981605777,129.987363396974L30.2018334336561,130.53534286136L29.8356852615351,131.083322325746L29.5572701407004,131.5L12.2191704178069,131.5L12.2340171624346,131.483070532387L12.6726391483633,130.982918014688L13.111261134292,130.482765496989L13.5498831202206,129.98261297929L13.9885051061493,129.482460461591L14.1046757182275,129.349993266654A1.57815,1.57815,0,1,0,16.1816150357927,126.981697873095L13.9260956133559,125.003660427795A1.57815,1.57815,0,1,0,11.8491562957906,127.371955821354L11.7329856837125,127.50442301629L11.2943636977838,128.004575533989L10.8557417118551,128.504728051688L10.4171197259264,129.004880569388L9.9784977399977,129.505033087087L9.539875754069,130.005185604786L9.1012537681404,130.505338122485L8.6626317822117,131.005490640184L8.2289587129233,131.5L0,131.5L0,123.271041287074L0.494509359816298,122.837368217786L0.994661877515399,122.398746231857L1.4948143952145,121.960124245928L1.9949669129136,121.52150226L2.4951194306126,121.082880274071L2.9952719483117,120.644258288142L3.4954244660107,120.205636302214L3.9955769837098,119.767014316285L4.1280441786464,119.650843704207A1.57815,1.57815,0,1,0,6.4963395722051,117.573904386642L4.5183021269051,115.318384964204A1.57815,1.57815,0,1,0,2.1500067333463,117.39532428177L2.0175395384097,117.511494893848L1.5173870207107,117.950116879776L1.0172345030116,118.388738865705L0.517081985312497,118.827360851634L0.0169294676135001,119.265982837562L0,119.28082958219L0,101.942729859298L0.416677674254498,101.664314738463L0.964657138640099,101.298166566342L1.5126366030257,100.932018394221L2.0606160674113,100.5658702221L2.6085955317969,100.199722049979L3.1565749961825,99.8335738778584L3.7045544605682,99.4674257057375L3.8253225037431,99.3867310791447A1.57815,1.57815,0,1,0,6.4444517824962,97.6366848451331L4.7777410834374,95.1422760082255A1.57815,1.57815,0,1,0,2.1586118046843,96.8923222422371L2.0378437615094,96.9730168688299L1.4898642971238,97.3391650409508L0.941884832738098,97.7053132130717L0.393905368352501,98.0714613851925L0,98.3346605376874L0,80.0492876975701L0.331716516869101,79.885703214537L0.8822705617643,79.614200005514L1.4328246066594,79.3426967964909L1.9833786515546,79.0711935874678L2.5339326964498,78.7996903784447L3.084486741345,78.5281871694216L3.562661874888,78.292377289473A1.57815,1.57815,0,1,0,6.387811010716,76.8991679152831L5.060944940059,74.2085496906851A1.57815,1.57815,0,1,0,2.235795804231,75.6017590648749L1.757620670688,75.8375689448236L1.2070666257928,76.1090721538466L0.656512580897599,76.3805753628697L0.105958536002499,76.6520785718928L0,76.7043315392714L0,57.8041623984662L0.241079597296898,57.7223269024387L0.849710277274998,57.5157246260452L1.4583409572531,57.3091223496517L2.0669716372312,57.1025200732582L2.6756023172092,56.8959177968648L3.2842329971873,56.6893155204713L3.3445564891681,56.6688384542089A1.57815,1.57815,0,1,0,6.3273863970776,55.656304138504L5.3630680011682,52.8155137500186A1.57815,1.57815,0,1,0,2.3802380932586,53.8280480657236L2.3199146012778,53.848525131986L1.7112839212997,54.0551274083795L1.1026532413217,54.2617296847729L0.494022561343599,54.4683319611664L0,54.6360300235891L0,35.3495079407888L0.555411524806,35.2390297195197L1.1606623648635,35.1186378420653L1.7659132049209,34.998245964611L2.3711640449784,34.8778540871566L2.9131954520531,34.7700373367812A1.57815,1.57815,0,1,0,6.0026690853233,34.1555028224304L5.4173981192749,31.2131469812208A1.57815,1.57815,0,1,0,2.3279244860047,31.8276814955716L1.78589307893,31.9354982459469L1.1806422388726,32.0558901234013L0.575391398815099,32.1762820008556L0,32.2907344661638L0,12.790664444129L0.457859756474199,12.760654730206L1.0662389520429,12.7207794510237L1.6746181476116,12.6809041718413L2.2829973431802,12.641028892659L2.7900169083907,12.6077970746401A1.57815,1.57815,0,1,0,5.9332725165923,12.4017772175651L5.7370631289019,9.4082004478493A1.57815,1.57815,0,1,0,2.5938075207003,9.61422030492425L2.0867879554898,9.64745212294322L1.4784087599211,9.68732740212554L0.870029564352399,9.72720268130786L0.261650368783799,9.76707796049018L0,9.78422743170715Z"/>
    <path offsetable="1" class="production_part_contour" id="J1_offset" stroke="#0000FF" stroke-width="0.25" fill="#FFFFFF" fill-opacity="0.5" style="stroke:#0000FF;" d="M-1.499850,0.000000A1.49985,1.49985,0,0,1,0,-1.49985L37.000000,-1.499850A1.49985,1.49985,0,0,1,38.49985,0L38.499850,93.000150L224.500150,93.000150L224.500150,0.000000A1.49985000000001,1.49985000000001,0,0,1,226,-1.49985L263.000000,-1.499850A1.49985,1.49985,0,0,1,264.49985,0L264.499850,9.784227A1.49984999999998,1.49984999999998,0,0,1,262.901905116624,11.2808661377264L262.640255,11.263717L261.423496,11.183966L260.815117,11.144091L260.308098,11.110859A1.49985000000004,1.49985000000004,0,0,1,258.91873585295,9.4218071888788A0.07829999999999,0.07829999999999,0,1,0,258.76278305118,9.4115855021661A1.49984999999975,1.49984999999975,0,0,1,258.759575577117,9.5062953312248L258.563366,12.499872A1.49984999999955,1.49984999999955,0,0,1,258.554184109757,12.5941903336174A0.07829999999999,0.07829999999999,0,1,0,258.710136911527,12.6044120203302A1.49984999999974,1.49984999999974,0,0,1,260.308077974985,11.1111583686205L260.815098,11.144390L261.423477,11.184265L262.031856,11.224141L262.640235,11.264016L263.098095,11.294026A1.49984999999999,1.49984999999999,0,0,1,264.49985,12.7906644441289L264.499850,32.290734A1.49984999999998,1.49984999999998,0,0,1,262.707393780524,33.7617652689761L262.132002,33.647313L261.526752,33.526921L260.921501,33.406529L260.379469,33.298712A1.49985000000003,1.49985000000003,0,0,1,259.222459236655,31.442762450873A0.07829999999999,0.07829999999999,0,1,0,259.069174830569,31.4122722867262A1.49985000000021,1.49985000000021,0,0,1,259.053632683538,31.5057532006962L258.468362,34.448109A1.49985000000018,1.49985000000018,0,0,1,258.446947192017,34.540421867128A0.07829999999999,0.07829999999999,0,1,0,258.600231598103,34.5709120312749A1.49985000000024,1.49985000000024,0,0,1,260.379410767423,33.299006533968L260.921442,33.406823L261.526693,33.527215L262.131944,33.647607L262.737195,33.767999L263.292606,33.878477A1.49985000000003,1.49985000000003,0,0,1,264.49985,35.3495079407882L264.499850,54.636030A1.49984999999998,1.49984999999998,0,0,1,262.517889017965,56.0562831783118L262.023866,55.888585L261.415236,55.681983A1.49984999999994,1.49984999999994,0,0,1,261.415235776643,55.6819828394959L260.197974,55.268778L260.137651,55.248301A1.49985000000005,1.49985000000005,0,0,1,259.232789314827,53.2572091639481A0.0783000000000103,0.0783000000000103,0,1,0,259.08479604311,53.2069722175291A1.49984999999959,1.49984999999959,0,0,1,259.057185153555,53.2976247320537L258.092867,56.138415A1.49984999999987,1.49984999999987,0,0,1,258.059586194839,56.2271430402722A0.0783000000000103,0.0783000000000103,0,1,0,258.207579466556,56.2773799866912A1.49984999999944,1.49984999999944,0,0,1,260.137554492866,55.248585299485L260.197878,55.269062A1.49985000000005,1.49985000000005,0,0,1,260.197877984848,55.2690623657478L260.806509,55.475665L261.415139,55.682267L262.023770,55.888869L263.241031,56.302074L263.482111,56.383909A1.49984999999994,1.49984999999994,0,0,1,264.49985,57.8041623984658L264.499850,76.704332A1.49984999999998,1.49984999999998,0,0,1,262.336633307976,78.0495061206595L262.230675,77.997253A1.49984999999984,1.49984999999984,0,0,1,262.230674771973,77.9972531532808L261.129567,77.454247L260.579013,77.182744L260.100838,76.946934A1.49985000000002,1.49985000000002,0,0,1,259.463606774871,74.8547675179A0.0783,0.0783,0,1,0,259.323436843434,74.7856433572903A1.49985000000008,1.49985000000008,0,0,1,259.28422964133,74.8719163827102L257.957364,77.562535A1.49985000000018,1.49985000000018,0,0,1,257.912786410184,77.6461594622584A0.0782999999999801,0.0782999999999801,0,1,0,258.05295634162,77.715283622868A1.49985000000003,1.49985000000003,0,0,1,260.100704817136,76.9472027080848L260.578880,77.183013A1.49985000000001,1.49985000000001,0,0,1,260.578879950681,77.1830125880341L262.781096,78.269025L263.331650,78.540529A1.49984999999996,1.49984999999996,0,0,1,263.331650175158,78.5405286331498L263.663367,78.704113A1.49985000000018,1.49985000000018,0,0,1,264.49985,80.04928769757L264.499850,98.334661A1.49984999999998,1.49984999999998,0,0,1,262.166727986005,99.5817402357008L261.772823,99.318541L261.224843,98.952393L260.676864,98.586245A1.49984999999995,1.49984999999995,0,0,1,260.676863688881,98.586244738964L260.128884,98.220097L260.008116,98.139402A1.49985000000018,1.49985000000018,0,0,1,259.649419527892,95.9819592825448A0.0782999999999801,0.0782999999999801,0,1,0,259.519471283125,95.8951306412974A1.49984999999998,1.49984999999998,0,0,1,259.469338614574,95.9755480222209L257.802628,98.469957A1.49984999999988,1.49984999999988,0,0,1,257.747516884922,98.5470478048337A0.07829999999999,0.07829999999999,0,1,0,257.87746512969,98.6338764460811A1.49984999999967,1.49984999999967,0,0,1,260.007949510247,98.1396513811314L260.128718,98.220346A1.49985000000024,1.49985000000024,0,0,1,260.128717553427,98.2203460077276L260.676697,98.586494L261.224676,98.952642L261.772656,99.318791A1.49984999999992,1.49984999999992,0,0,1,261.772655946584,99.3187905240905L262.320635,99.684939L262.868615,100.051087A1.49984999999977,1.49984999999977,0,0,1,262.868614875355,100.051086868333L263.416594,100.417235L263.833272,100.695650A1.49984999999978,1.49984999999978,0,0,1,264.49985,101.9427298593L264.499850,119.280830A1.49984999999998,1.49984999999998,0,0,1,262.011080179245,120.408476517458L261.994151,120.393630A1.49984999999971,1.49984999999971,0,0,1,261.994150711609,120.393629772811L260.993846,119.516386L260.493693,119.077764A1.49984999999997,1.49984999999997,0,0,1,260.493693158512,119.077763815025L259.993541,118.639142L259.861073,118.522971A1.49985000000004,1.49985000000004,0,0,1,259.787048267086,116.337166471993A0.0783,0.0783,0,1,0,259.669545159485,116.234119012233A1.49984999999997,1.49984999999997,0,0,1,259.609344808342,116.307304784984L257.631307,118.562824A1.49984999999985,1.49984999999985,0,0,1,257.566605427366,118.632062196417A0.0783,0.0783,0,1,0,257.684108534967,118.735109656177A1.49985000000008,1.49985000000008,0,0,1,259.860875642134,118.523196768963L259.993343,118.639367L260.493495,119.077989L260.993648,119.516611A1.49984999999993,1.49984999999993,0,0,1,260.993647872467,119.516611352896L261.493800,119.955233L261.993953,120.393855A1.49984999999997,1.49984999999997,0,0,1,261.993952907865,120.393855324753L262.994258,121.271099L263.494410,121.709721A1.49984999999992,1.49984999999992,0,0,1,263.494410460963,121.70972128254L263.988920,122.143394A1.49984999999976,1.49984999999976,0,0,1,264.49985,123.271041287075L264.499850,131.500000A1.49984999999998,1.49984999999998,0,0,1,263,132.99985L254.771041,132.999850A1.49985000000001,1.49985000000001,0,0,1,253.643394351823,132.488919820778L253.209721,131.994410L252.771099,131.494258L252.332477,130.994105A1.49984999999983,1.49984999999983,0,0,1,252.332477310677,130.994105425563L251.893855,130.493953L251.455233,129.993800A1.49984999999985,1.49984999999985,0,0,1,251.45523333882,129.993800390165L251.016611,129.493648L250.577989,128.993495A1.49984999999983,1.49984999999983,0,0,1,250.577989366963,128.993495354767L250.139367,128.493343A1.49984999999994,1.49984999999994,0,0,1,250.139367381032,128.493342837065L250.023197,128.360876A1.49985000000012,1.49985000000012,0,0,1,250.235109656139,126.184108534994A0.07830000000002,0.07830000000002,0,1,0,250.132062196453,126.066605427328A1.49985000000015,1.49985000000015,0,0,1,250.062824207418,126.131307363043L247.807305,128.109345A1.49985000000059,1.49985000000059,0,0,1,247.734119012268,128.169545159455A0.07830000000002,0.07830000000002,0,1,0,247.837166471954,128.287048267121A1.49985000000014,1.49985000000014,0,0,1,250.022971217012,128.361073445874L250.139142,128.493541A1.49984999999965,1.49984999999965,0,0,1,250.139141829092,128.493540640812L250.577764,128.993693A1.49984999999985,1.49984999999985,0,0,1,250.577763815023,128.993693158513L251.016386,129.493846L251.893630,130.494151L251.908477,130.511080A1.49984999999996,1.49984999999996,0,0,1,250.780829582188,132.99985L233.442730,132.999850A1.49985000000001,1.49985000000001,0,0,1,232.19565016129,132.333272013994L231.917235,131.916594L231.551087,131.368615A1.4998499999995,1.4998499999995,0,0,1,231.551086868334,131.368614875354L231.184939,130.820635L230.818791,130.272656A1.49984999999948,1.49984999999948,0,0,1,230.818790524092,130.272655946583L230.086494,129.176697L229.720346,128.628718A1.4998499999995,1.4998499999995,0,0,1,229.720346007726,128.628717553423L229.639651,128.507950A1.4998500000006,1.4998500000006,0,0,1,230.133876446034,126.377465129718A0.0783,0.0783,0,1,0,230.047047804868,126.247516884896A1.49984999999955,1.49984999999955,0,0,1,229.969956859131,126.302627915515L227.475548,127.969339A1.49985000000031,1.49985000000031,0,0,1,227.395130641336,128.019471283104A0.0783000000000103,0.0783000000000103,0,1,0,227.481959282502,128.149419527926A1.49985000000001,1.49985000000001,0,0,1,229.639401940254,128.508116181324L229.720097,128.628884L230.086245,129.176864A1.49984999999951,1.49984999999951,0,0,1,230.086244738966,129.176863688882L230.452393,129.724843L230.818541,130.272823L231.081740,130.666728A1.4998499999995,1.4998499999995,0,0,1,229.834660537691,132.99985L211.549288,132.999850A1.49985000000001,1.49985000000001,0,0,1,210.204113116185,132.163366692025L210.040529,131.831650L209.497522,130.730542L209.226019,130.179988A1.49985000000018,1.49985000000018,0,0,1,209.226019006082,130.179988040471L208.683013,129.078880L208.447203,128.600705A1.49984999999973,1.49984999999973,0,0,1,209.215283622818,126.552956341642A0.0783000000000103,0.0783000000000103,0,1,0,209.146159462296,126.412786410162A1.49985000000013,1.49985000000013,0,0,1,209.06253460731,126.457363570672L206.371916,127.784230A1.49985000000018,1.49985000000018,0,0,1,206.285643357338,127.823436843415A0.07829999999999,0.07829999999999,0,1,0,206.35476751786,127.963606774895A1.49984999999964,1.49984999999964,0,0,1,208.446933646265,128.600837503744L208.682744,129.079013L208.954247,129.629567L209.225750,130.180121A1.49985000000018,1.49985000000018,0,0,1,209.225749944261,130.180120727078L209.497253,130.730675A1.49985000000018,1.49985000000018,0,0,1,209.497253153286,130.730674771977L209.549506,130.836633A1.49985000000022,1.49985000000022,0,0,1,208.204331539274,132.99985L189.304162,132.999850A1.49985000000001,1.49985000000001,0,0,1,187.88390924374,131.982110982032L187.802074,131.741031L187.595471,131.132401A1.49985000000013,1.49985000000013,0,0,1,187.595471471319,131.132400704759L187.388869,130.523770L187.182267,129.915139A1.4998500000001,1.4998500000001,0,0,1,187.182266918532,129.915139344803L186.769062,128.697878L186.748585,128.637554A1.49984999999953,1.49984999999953,0,0,1,187.777379986645,126.707579466568A0.0783,0.0783,0,1,0,187.727143040318,126.559586194819A1.49984999999962,1.49984999999962,0,0,1,187.638415120538,126.592866757645L184.797625,127.557185A1.49984999999979,1.49984999999979,0,0,1,184.706972217575,127.584796043098A0.0783,0.0783,0,1,0,184.757209163902,127.732789314846A1.49984999999965,1.49984999999965,0,0,1,186.748301220449,128.637650924716L186.768778,128.697974L186.975381,129.306605A1.4998500000001,1.4998500000001,0,0,1,186.975380563102,129.306605096666L187.181983,129.915236L187.388585,130.523866A1.4998500000001,1.4998500000001,0,0,1,187.388585115889,130.523866456623L187.556283,131.017889A1.49985000000008,1.49985000000008,0,0,1,186.136030023587,132.99985L166.849508,132.999850A1.49985000000001,1.49985000000001,0,0,1,165.378477137978,131.792606219478L165.267999,131.237195A1.49984999999965,1.49984999999965,0,0,1,165.267998916707,131.237194694668L165.027215,130.026693L164.906823,129.421442L164.799007,128.879411A1.49985000000004,1.49985000000004,0,0,1,166.070912031227,127.10023159811A0.0783,0.0783,0,1,0,166.040421867176,126.946947192004A1.49984999999961,1.49984999999961,0,0,1,165.948109041907,126.96836171749L163.005753,127.553633A1.49985000000024,1.49985000000024,0,0,1,162.912272286776,127.569174830562A0.0783,0.0783,0,1,0,162.942762450827,127.722459236668A1.49984999999959,1.49984999999959,0,0,1,164.798712298384,128.879469294518L164.906529,129.421501A1.49984999999945,1.49984999999945,0,0,1,164.906529048761,129.421500701595L165.026921,130.026752L165.147313,130.632002L165.261765,131.207394A1.49984999999945,1.49984999999945,0,0,1,163.790734466165,132.99985L144.290664,132.999850A1.49985000000001,1.49985000000001,0,0,1,142.794025738111,131.598094883379L142.764016,131.140235L142.724141,130.531856L142.684265,129.923477L142.644390,129.315098L142.611158,128.808078A1.49984999999958,1.49984999999958,0,0,1,144.104412020282,127.210136911527A0.0783,0.0783,0,1,0,144.094190333666,127.054184109751A1.4998499999998,1.4998499999998,0,0,1,143.999872100941,127.063366189427L141.006295,127.259576A1.49984999999959,1.49984999999959,0,0,1,140.911585502215,127.26278305118A0.0783,0.0783,0,1,0,140.92180718883,127.418735852956A1.49984999999988,1.49984999999988,0,0,1,142.610859010943,128.808097595924L142.644091,129.315117L142.683966,129.923496L142.723841,130.531876L142.763717,131.140255L142.780866,131.401905A1.49984999999961,1.49984999999961,0,0,1,141.284227431708,132.99985L121.715773,132.999850A1.49985000000001,1.49985000000001,0,0,1,120.219133862274,131.401905116624L120.236283,131.140255L120.276159,130.531876L120.316034,129.923496L120.355909,129.315117L120.389141,128.808098A1.49984999999959,1.49984999999959,0,0,1,122.078192811122,127.41873585295A0.0783,0.0783,0,1,0,122.088414497835,127.26278305118A1.49984999999975,1.49984999999975,0,0,1,121.993704668776,127.259575577117L119.000128,127.063366A1.49984999999959,1.49984999999959,0,0,1,118.905809666383,127.054184109757A0.0783,0.0783,0,1,0,118.89558797967,127.210136911527A1.49984999999974,1.49984999999974,0,0,1,120.38884163138,128.808077974985L120.355610,129.315098L120.315735,129.923477L120.275859,130.531856L120.235984,131.140235L120.205974,131.598095A1.49984999999961,1.49984999999961,0,0,1,118.709335555871,132.99985L99.209266,132.999850A1.49985000000001,1.49985000000001,0,0,1,97.7382347310226,131.207393780522L97.852687,130.632002L97.973079,130.026752L98.093471,129.421501A1.49985000000004,1.49985000000004,0,0,1,98.0934709512395,129.421500701593L98.201288,128.879469A1.49984999999994,1.49984999999994,0,0,1,100.057237549126,127.722459236655A0.0783,0.0783,0,1,0,100.087727713273,127.569174830569A1.49985000000025,1.49985000000025,0,0,1,99.9942467993033,127.553632683538L97.051891,126.968362A1.49985000000018,1.49985000000018,0,0,1,96.9595781328711,126.946947192017A0.0783,0.0783,0,1,0,96.9290879687242,127.100231598103A1.49985000000028,1.49985000000028,0,0,1,98.200993466031,128.879410767422L98.093177,129.421442A1.49985000000004,1.49985000000004,0,0,1,98.0931767156554,129.4214421745L97.972785,130.026693L97.852393,130.631944L97.732001,131.237195A1.49984999999994,1.49984999999994,0,0,1,97.7320010832923,131.237194694672L97.621523,131.792606A1.49984999999994,1.49984999999994,0,0,1,96.15049205921,132.99985L76.863970,132.999850A1.49985000000001,1.49985000000001,0,0,1,75.4437168216882,131.017889017965L75.611415,130.523866L75.818017,129.915236A1.49984999999994,1.49984999999994,0,0,1,75.8180171605041,129.915235776643L76.024619,129.306605L76.231222,128.697974L76.251699,128.637651A1.49985000000014,1.49985000000014,0,0,1,78.2427908360518,127.732789314827A0.0783,0.0783,0,1,0,78.2930277824709,127.58479604311A1.49984999999963,1.49984999999963,0,0,1,78.2023752679464,127.557185153555L75.361585,126.592867A1.49984999999986,1.49984999999986,0,0,1,75.2728569597279,126.559586194839A0.0783,0.0783,0,1,0,75.2226200133088,126.707579466555A1.49985000000039,1.49985000000039,0,0,1,76.2514147005151,128.637554492866L76.230938,128.697878A1.49985000000013,1.49985000000013,0,0,1,76.2309376342522,128.697877984848L75.817733,129.915139L75.611131,130.523770L75.197926,131.741031L75.116091,131.982111A1.49984999999986,1.49984999999986,0,0,1,73.6958376015342,132.99985L54.795668,132.999850A1.49985000000001,1.49985000000001,0,0,1,53.4504938793393,130.836633307976L53.502747,130.730675A1.4998500000002,1.4998500000002,0,0,1,53.5027468467188,130.730674771972L54.317256,129.079013L54.553066,128.600838A1.4998500000001,1.4998500000001,0,0,1,56.6452324820992,127.96360677487A0.0783,0.0783,0,1,0,56.7143566427088,127.823436843434A1.49985000000029,1.49985000000029,0,0,1,56.6280836172891,127.78422964133L53.937465,126.457364A1.49985000000037,1.49985000000037,0,0,1,53.8538405377479,126.412786410186A0.0783,0.0783,0,1,0,53.7847163771382,126.552956341623A1.49984999999988,1.49984999999988,0,0,1,54.5527972919142,128.600704817137L54.316987,129.078880L52.959471,131.831650L52.795887,132.163367A1.49984999999984,1.49984999999984,0,0,1,51.4507123024289,132.99985L33.165339,132.999850A1.49985000000001,1.49985000000001,0,0,1,31.9182597642993,130.666727986005L32.181459,130.272823L32.547607,129.724843L32.913755,129.176864A1.49984999999993,1.49984999999993,0,0,1,32.913755261036,129.176863688881L33.279903,128.628884L33.360598,128.508116A1.49985000000011,1.49985000000011,0,0,1,35.5180407174555,128.149419527892A0.0783,0.0783,0,1,0,35.6048693587029,128.019471283125A1.49984999999985,1.49984999999985,0,0,1,35.5244519777791,127.969338614574L33.030043,126.302628A1.49984999999989,1.49984999999989,0,0,1,32.9529521951717,126.247516884927A0.0783,0.0783,0,1,0,32.8661235539242,126.377465129694A1.49984999999985,1.49984999999985,0,0,1,33.3603486188651,128.507949510253L33.279654,128.628718L32.913506,129.176697L32.181209,130.272656A1.49984999999993,1.49984999999993,0,0,1,32.1812094759094,130.272655946584L31.815061,130.820635L31.448913,131.368615L31.082765,131.916594A1.49984999999993,1.49984999999993,0,0,1,31.0827649595467,131.916594339741L30.804350,132.333272A1.49985,1.49985,0,0,1,29.5572701407004,132.99985L12.219170,132.999850A1.49985000000001,1.49985000000001,0,0,1,11.0915234825626,130.511080179219L11.106370,130.494151L11.983614,129.493846L12.422236,128.993693L12.860858,128.493541L12.977029,128.361073A1.49985000000017,1.49985000000017,0,0,1,15.1628335280047,128.287048267086A0.0783,0.0783,0,1,0,15.2658809877646,128.169545159484A1.49984999999987,1.49984999999987,0,0,1,15.1926952150149,128.109344808342L12.937176,126.131307A1.49984999999972,1.49984999999972,0,0,1,12.8679378035791,126.066605427364A0.0783,0.0783,0,1,0,12.7648903438192,126.184108534965A1.49985000000019,1.49985000000019,0,0,1,12.9768032310356,128.360875642135L12.860633,128.493343L11.983389,129.493648L11.544767,129.993800A1.49985000000009,1.49985000000009,0,0,1,11.5447666611736,129.993800390166L11.106145,130.493953L10.667523,130.994105L10.228901,131.494258L9.790279,131.994410L9.356606,132.488920A1.49984999999996,1.49984999999996,0,0,1,8.2289587129233,132.99985L0.000000,132.999850A1.49985000000001,1.49985000000001,0,0,1,-1.49985,131.5L-1.499850,123.271041A1.49985,1.49985,0,0,1,-0.9889198207772,122.143394351826L-0.494410,121.709721L0.005742,121.271099L0.505895,120.832477A1.49985000000001,1.49985000000001,0,0,1,0.5058945744375,120.83247731068L1.006047,120.393855L2.006352,119.516611A1.49985000000001,1.49985000000001,0,0,1,2.0063521275346,119.516611352894L2.506505,119.077989L3.006657,118.639367A1.49985000000001,1.49985000000001,0,0,1,3.0066571629323,118.639367381037L3.139124,118.523197A1.49985000000026,1.49985000000026,0,0,1,5.3158914650072,118.735109656142A0.0783,0.0783,0,1,0,5.433394572673,118.632062196456A1.49985000000017,1.49985000000017,0,0,1,5.3686926369574,118.56282420742L3.390655,116.307305A1.49985000000032,1.49985000000032,0,0,1,3.3304548405478,116.234119012273A0.0783,0.0783,0,1,0,3.2129517328819,116.33716647196A1.49984999999993,1.49984999999993,0,0,1,3.1389265541237,118.522971217018L3.006459,118.639142L2.506307,119.077764L1.506002,119.955008A1.49985000000001,1.49985000000001,0,0,1,1.5060018060895,119.955007786882L1.005849,120.393630A1.49985,1.49985,0,0,1,1.0058492883894,120.393629772811L0.988920,120.408477A1.49985000000001,1.49985000000001,0,0,1,-1.49985,119.28082958219L-1.499850,101.942730A1.49985,1.49985,0,0,1,-0.8332720139949,100.695650161286L-0.416594,100.417235L0.131385,100.051087L0.679365,99.684939L1.775324,98.952642A1.49985000000001,1.49985000000001,0,0,1,1.7753235178029,98.9526423519667L2.323303,98.586494L2.871282,98.220346L2.992050,98.139651A1.49985000000001,1.49985000000001,0,0,1,5.1225348702818,98.6338764460322A0.0783,0.0783,0,1,0,5.2524831151034,98.5470478048662A1.49985000000001,1.49985000000001,0,0,1,5.1973720844842,98.4699568591276L3.530661,95.975548A1.49985000000003,1.49985000000003,0,0,1,3.4805287168986,95.895130641338A0.0783,0.0783,0,1,0,3.350580472077,95.9819592825041A1.49984999999998,1.49984999999998,0,0,1,2.9918838186788,98.139401940249L2.871116,98.220097A1.49985000000001,1.49985000000001,0,0,1,2.8711157755038,98.2200965668419L2.323136,98.586245A1.49985000000001,1.49985000000001,0,0,1,2.3231363111181,98.5862447389629L1.775157,98.952393L1.227177,99.318541L0.833272,99.581740A1.49984999999996,1.49984999999996,0,0,1,-1.49985,98.3346605376874L-1.499850,80.049288A1.49985,1.49985,0,0,1,-0.6633666920252,78.7041131161824L-0.331650,78.540529A1.49985,1.49985,0,0,1,-0.3316501751557,78.5405286331491L0.218904,78.269025L1.870566,77.454516L2.421120,77.183013L2.899295,76.947203A1.49984999999996,1.49984999999996,0,0,1,4.9470436583585,77.7152836228167A0.0783,0.0783,0,1,0,5.0872135898385,77.6461594622948A1.49985000000001,1.49985000000001,0,0,1,5.0426364293281,77.5625346073081L3.715770,74.871916A1.49985000000001,1.49985000000001,0,0,1,3.6765631565882,74.7856433573411A0.0783,0.0783,0,1,0,3.5363932251083,74.854767517863A1.49984999999998,1.49984999999998,0,0,1,2.8991624962561,76.9469336462625L2.420987,77.182744A1.49984999999997,1.49984999999997,0,0,1,2.4209873627127,77.1827435262115L1.870433,77.454247L1.319879,77.725750L0.769325,77.997253A1.49985000000003,1.49985000000003,0,0,1,0.7693252280273,77.9972531532807L0.663367,78.049506A1.49985000000004,1.49985000000004,0,0,1,-1.49985,76.7043315392713L-1.499850,57.804162A1.49985,1.49985,0,0,1,-0.4821109820349,56.383909243743L-0.241031,56.302074L0.367599,56.095471L0.976230,55.888869L1.584861,55.682267A1.49984999999998,1.49984999999998,0,0,1,1.5848606551963,55.6822669185349L2.193491,55.475665L2.802122,55.269062L2.862446,55.248585A1.49984999999998,1.49984999999998,0,0,1,4.7924205334327,56.2773799866473A0.0783,0.0783,0,1,0,4.940413805181,56.227143040321A1.49985,1.49985,0,0,1,4.9071332423543,56.1384151205389L3.942815,53.297625A1.49985,1.49985,0,0,1,3.9152039569037,53.206972217581A0.0783,0.0783,0,1,0,3.7672106851555,53.2572091639074A1.49985000000001,1.49985000000001,0,0,1,2.8623490752937,55.2483012204468L2.802026,55.268778L2.193395,55.475381A1.49984999999998,1.49984999999998,0,0,1,2.1933949033345,55.4753805631028L1.584764,55.681983L0.976134,55.888585L0.482111,56.056283A1.49984999999999,1.49984999999999,0,0,1,-1.49985,54.6360300235891L-1.499850,35.349508A1.49985,1.49985,0,0,1,-0.2926062194759,33.878477137976L0.262805,33.767999L0.868056,33.647607L1.473307,33.527215L2.078558,33.406823L2.620589,33.299007A1.49985000000003,1.49985000000003,0,0,1,4.3997684018901,34.5709120312254A0.0783,0.0783,0,1,0,4.5530528079956,34.5404218671745A1.49985,1.49985,0,0,1,4.5316382825105,34.4481090419063L3.946367,31.505753A1.49985,1.49985,0,0,1,3.9308251694378,31.4122722867766A0.0783,0.0783,0,1,0,3.7775407633323,31.4427624508275A1.49985,1.49985,0,0,1,2.6205307054804,33.2987122983844L2.078499,33.406529L1.473248,33.526921L0.867998,33.647313L0.292606,33.761765A1.49985000000002,1.49985000000002,0,0,1,-1.49985,32.2907344661638L-1.499850,12.790664A1.49985,1.49985,0,0,1,-0.0980948833756,11.2940257381096L0.359765,11.264016L0.968144,11.224141L1.576523,11.184265L2.184902,11.144390L2.691922,11.111158A1.49984999999997,1.49984999999997,0,0,1,4.2898630884728,12.604412020277A0.0783,0.0783,0,1,0,4.4458158902485,12.5941903336618A1.49984999999999,1.49984999999999,0,0,1,4.4366338105728,12.4998721009409L4.240424,9.506295A1.49985,1.49985,0,0,1,4.2372169488197,9.4115855022123A0.0783,0.0783,0,1,0,4.081264147044,9.4218071888274A1.49985,1.49985,0,0,1,2.6919024040761,11.1108590109437L2.184883,11.144091L1.576504,11.183966L0.968124,11.223841L0.359745,11.263717L0.098095,11.280866A1.49985000000003,1.49985000000003,0,0,1,-1.49985,9.7842274317071L-1.499850,0.000000Z" offset="1.5"/>
    <path offsetable="1" class="production_part_notch" id="J1_notch_0" stroke="#F6921E" stroke-width="0.25" fill="none" fill-opacity="0.5" style="stroke:#F6921E;" d="M263,9.78422743170704L262.738349631217,9.76707796049009L262.129970435648,9.72720268130777L261.521591240079,9.68732740212545L260.91321204451,9.64745212294313L260.4061924793,9.61422030492415A1.57814999999999,1.57814999999999,0,1,0,257.262936871098,9.40820044784921L257.066727483408,12.401777217565A1.57814999999999,1.57814999999999,0,1,0,260.209983091609,12.6077970746399L260.71700265682,12.6410288926589L261.325381852389,12.6809041718412L261.933761047957,12.7207794510236L262.542140243526,12.7606547302059L263,12.7906644441289"/>
    <path offsetable="1" class="production_part_notch" id="J1_notch_0_offset" stroke="#0000CC" stroke-width="0.25" fill="#FFFFFF" fill-opacity="0.5" style="stroke:#0000CC;" d="M262.901905,11.280866L262.640255,11.263717L261.423496,11.183966L260.815117,11.144091L260.308098,11.110859A1.49985000000004,1.49985000000004,0,0,1,258.91873585295,9.4218071888788A0.07829999999999,0.07829999999999,0,1,0,258.76278305118,9.4115855021661A1.49984999999975,1.49984999999975,0,0,1,258.759575577117,9.5062953312248L258.563366,12.499872A1.49984999999955,1.49984999999955,0,0,1,258.554184109757,12.5941903336174A0.07829999999999,0.07829999999999,0,1,0,258.710136911527,12.6044120203302A1.49984999999974,1.49984999999974,0,0,1,260.308077974985,11.1111583686205L260.815098,11.144390L261.423477,11.184265L262.031856,11.224141L262.640235,11.264016L263.098095,11.294026" offset="1.5"/>
    <path offsetable="1" class="production_part_notch" id="J1_notch_1" stroke="#F6921E" stroke-width="0.25" fill="none" fill-opacity="0.5" style="stroke:#F6921E;" d="M263,32.2907344661633L262.424608601185,32.1762820008552L261.819357761128,32.0558901234008L261.21410692107,31.9354982459465L260.672075513995,31.8276814955711A1.57814999999999,1.57814999999999,0,1,0,257.582601880725,31.2131469812205L256.997330914677,34.1555028224301A1.57814999999999,1.57814999999999,0,1,0,260.086804547947,34.7700373367808L260.628835955022,34.8778540871562L261.234086795079,34.9982459646105L261.839337635137,35.1186378420649L262.444588475194,35.2390297195192L263,35.3495079407882"/>
    <path offsetable="1" class="production_part_notch" id="J1_notch_1_offset" stroke="#0000CC" stroke-width="0.25" fill="#FFFFFF" fill-opacity="0.5" style="stroke:#0000CC;" d="M262.707394,33.761765L262.132002,33.647313L261.526752,33.526921L260.921501,33.406529L260.379469,33.298712A1.49985000000003,1.49985000000003,0,0,1,259.222459236655,31.442762450873A0.07829999999999,0.07829999999999,0,1,0,259.069174830569,31.4122722867262A1.49985000000021,1.49985000000021,0,0,1,259.053632683538,31.5057532006962L258.468362,34.448109A1.49985000000018,1.49985000000018,0,0,1,258.446947192017,34.540421867128A0.07829999999999,0.07829999999999,0,1,0,258.600231598103,34.5709120312749A1.49985000000024,1.49985000000024,0,0,1,260.379410767423,33.299006533968L260.921442,33.406823L261.526693,33.527215L262.131944,33.647607L262.737195,33.767999L263.292606,33.878477" offset="1.5"/>
    <path offsetable="1" class="production_part_notch" id="J1_notch_2" stroke="#F6921E" stroke-width="0.25" fill="none" fill-opacity="0.5" style="stroke:#F6921E;" d="M263,54.6360300235887L262.505977438657,54.4683319611661L261.897346758678,54.2617296847727L261.2887160787,54.0551274083792L260.680085398722,53.8485251319857L260.619761906741,53.8280480657233A1.57815000000001,1.57815000000001,0,1,0,257.636931998832,52.8155137500185L256.672613602922,55.6563041385037A1.57815000000001,1.57815000000001,0,1,0,259.655443510832,56.6688384542086L259.715767002813,56.689315520471L260.324397682791,56.8959177968645L260.933028362769,57.102520073258L261.541659042747,57.3091223496514L262.150289722725,57.5157246260449L262.758920402703,57.7223269024384L263,57.8041623984658"/>
    <path offsetable="1" class="production_part_notch" id="J1_notch_2_offset" stroke="#0000CC" stroke-width="0.25" fill="#FFFFFF" fill-opacity="0.5" style="stroke:#0000CC;" d="M262.517889,56.056283L262.023866,55.888585L261.415236,55.681983A1.49984999999994,1.49984999999994,0,0,1,261.415235776643,55.6819828394959L260.197974,55.268778L260.137651,55.248301A1.49985000000005,1.49985000000005,0,0,1,259.232789314827,53.2572091639481A0.0783000000000103,0.0783000000000103,0,1,0,259.08479604311,53.2069722175291A1.49984999999959,1.49984999999959,0,0,1,259.057185153555,53.2976247320537L258.092867,56.138415A1.49984999999987,1.49984999999987,0,0,1,258.059586194839,56.2271430402722A0.0783000000000103,0.0783000000000103,0,1,0,258.207579466556,56.2773799866912A1.49984999999944,1.49984999999944,0,0,1,260.137554492866,55.248585299485L260.197878,55.269062A1.49985000000005,1.49985000000005,0,0,1,260.197877984848,55.2690623657478L260.806509,55.475665L261.415139,55.682267L262.023770,55.888869L263.241031,56.302074L263.482111,56.383909" offset="1.5"/>
    <path offsetable="1" class="production_part_notch" id="J1_notch_3" stroke="#F6921E" stroke-width="0.25" fill="none" fill-opacity="0.5" style="stroke:#F6921E;" d="M263,76.7043315392714L262.894041463998,76.6520785718931L262.343487419103,76.38057536287L261.792933374208,76.1090721538469L261.242379329313,75.8375689448238L260.764204195769,75.6017590648751A1.57815,1.57815,0,1,0,257.939055059942,74.2085496906852L256.612188989285,76.8991679152832A1.57814999999998,1.57814999999998,0,1,0,259.437338125112,78.2923772894731L259.915513258656,78.5281871694218L260.466067303551,78.7996903784449L261.016621348446,79.071193587468L261.567175393341,79.3426967964911L262.117729438236,79.6142000055142L262.668283483132,79.8857032145373L263,80.04928769757"/>
    <path offsetable="1" class="production_part_notch" id="J1_notch_3_offset" stroke="#0000CC" stroke-width="0.25" fill="#FFFFFF" fill-opacity="0.5" style="stroke:#0000CC;" d="M262.336633,78.049506L262.230675,77.997253A1.49984999999984,1.49984999999984,0,0,1,262.230674771973,77.9972531532808L261.129567,77.454247L260.579013,77.182744L260.100838,76.946934A1.49985000000002,1.49985000000002,0,0,1,259.463606774871,74.8547675179A0.0783,0.0783,0,1,0,259.323436843434,74.7856433572903A1.49985000000008,1.49985000000008,0,0,1,259.28422964133,74.8719163827102L257.957364,77.562535A1.49985000000018,1.49985000000018,0,0,1,257.912786410184,77.6461594622584A0.0782999999999801,0.0782999999999801,0,1,0,258.05295634162,77.715283622868A1.49985000000003,1.49985000000003,0,0,1,260.100704817136,76.9472027080848L260.578880,77.183013A1.49985000000001,1.49985000000001,0,0,1,260.578879950681,77.1830125880341L262.781096,78.269025L263.331650,78.540529A1.49984999999996,1.49984999999996,0,0,1,263.331650175158,78.5405286331498L263.663367,78.704113" offset="1.5"/>
    <path offsetable="1" class="production_part_notch" id="J1_notch_4" stroke="#F6921E" stroke-width="0.25" fill="none" fill-opacity="0.5" style="stroke:#F6921E;" d="M263,98.3346605376892L262.606094631648,98.0714613851944L262.058115167262,97.7053132130734L261.510135702876,97.3391650409525L260.962156238491,96.9730168688315L260.841388195315,96.8923222422385A1.57814999999998,1.57814999999998,0,1,0,258.222258916562,95.1422760082267L256.555548217504,97.6366848451343A1.57814999999999,1.57814999999999,0,1,0,259.174677496256,99.386731079146L259.295445539432,99.467425705739L259.843425003817,99.83357387786L260.391404468203,100.199722049981L260.939383932589,100.565870222102L261.487363396974,100.932018394223L262.03534286136,101.298166566344L262.583322325745,101.664314738465L263,101.9427298593"/>
    <path offsetable="1" class="production_part_notch" id="J1_notch_4_offset" stroke="#0000CC" stroke-width="0.25" fill="#FFFFFF" fill-opacity="0.5" style="stroke:#0000CC;" d="M262.166728,99.581740L261.772823,99.318541L261.224843,98.952393L260.676864,98.586245A1.49984999999995,1.49984999999995,0,0,1,260.676863688881,98.586244738964L260.128884,98.220097L260.008116,98.139402A1.49985000000018,1.49985000000018,0,0,1,259.649419527892,95.9819592825448A0.0782999999999801,0.0782999999999801,0,1,0,259.519471283125,95.8951306412974A1.49984999999998,1.49984999999998,0,0,1,259.469338614574,95.9755480222209L257.802628,98.469957A1.49984999999988,1.49984999999988,0,0,1,257.747516884922,98.5470478048337A0.07829999999999,0.07829999999999,0,1,0,257.87746512969,98.6338764460811A1.49984999999967,1.49984999999967,0,0,1,260.007949510247,98.1396513811314L260.128718,98.220346A1.49985000000024,1.49985000000024,0,0,1,260.128717553427,98.2203460077276L260.676697,98.586494L261.224676,98.952642L261.772656,99.318791A1.49984999999992,1.49984999999992,0,0,1,261.772655946584,99.3187905240905L262.320635,99.684939L262.868615,100.051087A1.49984999999977,1.49984999999977,0,0,1,262.868614875355,100.051086868333L263.416594,100.417235L263.833272,100.695650" offset="1.5"/>
    <path offsetable="1" class="production_part_notch" id="J1_notch_5" stroke="#F6921E" stroke-width="0.25" fill="none" fill-opacity="0.5" style="stroke:#F6921E;" d="M263,119.280829582191L262.983070532387,119.265982837564L262.482918014688,118.827360851635L261.982765496989,118.388738865706L261.48261297929,117.950116879778L260.982460461591,117.511494893849L260.849993266654,117.395324281771A1.57815,1.57815,0,1,0,258.481697873095,115.318384964206L256.503660427795,117.573904386642A1.57815,1.57815,0,1,0,258.871955821354,119.650843704208L259.00442301629,119.767014316286L259.504575533989,120.205636302214L260.004728051689,120.644258288143L260.504880569388,121.082880274072L261.005033087087,121.52150226L261.505185604786,121.960124245929L262.005338122485,122.398746231858L262.505490640184,122.837368217786L263,123.271041287075"/>
    <path offsetable="1" class="production_part_notch" id="J1_notch_5_offset" stroke="#0000CC" stroke-width="0.25" fill="#FFFFFF" fill-opacity="0.5" style="stroke:#0000CC;" d="M262.011080,120.408477L261.994151,120.393630A1.49984999999971,1.49984999999971,0,0,1,261.994150711609,120.393629772811L260.993846,119.516386L260.493693,119.077764A1.49984999999997,1.49984999999997,0,0,1,260.493693158512,119.077763815025L259.993541,118.639142L259.861073,118.522971A1.49985000000004,1.49985000000004,0,0,1,259.787048267086,116.337166471993A0.0783,0.0783,0,1,0,259.669545159485,116.234119012233A1.49984999999997,1.49984999999997,0,0,1,259.609344808342,116.307304784984L257.631307,118.562824A1.49984999999985,1.49984999999985,0,0,1,257.566605427366,118.632062196417A0.0783,0.0783,0,1,0,257.684108534967,118.735109656177A1.49985000000008,1.49985000000008,0,0,1,259.860875642134,118.523196768963L259.993343,118.639367L260.493495,119.077989L260.993648,119.516611A1.49984999999993,1.49984999999993,0,0,1,260.993647872467,119.516611352896L261.493800,119.955233L261.993953,120.393855A1.49984999999997,1.49984999999997,0,0,1,261.993952907865,120.393855324753L262.994258,121.271099L263.494410,121.709721A1.49984999999992,1.49984999999992,0,0,1,263.494410460963,121.70972128254L263.988920,122.143394" offset="1.5"/>
    <path offsetable="1" class="production_part_notch" id="J1_notch_6" stroke="#F6921E" stroke-width="0.25" fill="none" fill-opacity="0.5" style="stroke:#F6921E;" d="M254.771041287071,131.5L254.337368217783,131.005490640184L253.898746231854,130.505338122485L253.460124245925,130.005185604786L253.021502259997,129.505033087087L252.582880274068,129.004880569388L252.14425828814,128.504728051689L251.705636302211,128.00457553399L251.267014316282,127.50442301629L251.150843704205,127.371955821354A1.57815000000002,1.57815000000002,0,1,0,249.07390438664,125.003660427795L246.818384964202,126.981697873095A1.57815000000002,1.57815000000002,0,1,0,248.895324281767,129.349993266654L249.011494893845,129.48246046159L249.450116879774,129.982612979289L249.888738865702,130.482765496989L250.327360851631,130.982918014688L250.76598283756,131.483070532387L250.780829582188,131.5"/>
    <path offsetable="1" class="production_part_notch" id="J1_notch_6_offset" stroke="#0000CC" stroke-width="0.25" fill="#FFFFFF" fill-opacity="0.5" style="stroke:#0000CC;" d="M253.643394,132.488920L253.209721,131.994410L252.771099,131.494258L252.332477,130.994105A1.49984999999983,1.49984999999983,0,0,1,252.332477310677,130.994105425563L251.893855,130.493953L251.455233,129.993800A1.49984999999985,1.49984999999985,0,0,1,251.45523333882,129.993800390165L251.016611,129.493648L250.577989,128.993495A1.49984999999983,1.49984999999983,0,0,1,250.577989366963,128.993495354767L250.139367,128.493343A1.49984999999994,1.49984999999994,0,0,1,250.139367381032,128.493342837065L250.023197,128.360876A1.49985000000012,1.49985000000012,0,0,1,250.235109656139,126.184108534994A0.07830000000002,0.07830000000002,0,1,0,250.132062196453,126.066605427328A1.49985000000015,1.49985000000015,0,0,1,250.062824207418,126.131307363043L247.807305,128.109345A1.49985000000059,1.49985000000059,0,0,1,247.734119012268,128.169545159455A0.07830000000002,0.07830000000002,0,1,0,247.837166471954,128.287048267121A1.49985000000014,1.49985000000014,0,0,1,250.022971217012,128.361073445874L250.139142,128.493541A1.49984999999965,1.49984999999965,0,0,1,250.139141829092,128.493540640812L250.577764,128.993693A1.49984999999985,1.49984999999985,0,0,1,250.577763815023,128.993693158513L251.016386,129.493846L251.893630,130.494151L251.908477,130.511080" offset="1.5"/>
    <path offsetable="1" class="production_part_notch" id="J1_notch_7" stroke="#F6921E" stroke-width="0.25" fill="none" fill-opacity="0.5" style="stroke:#F6921E;" d="M233.442729859302,131.5L233.164314738467,131.083322325745L232.798166566346,130.53534286136L232.432018394225,129.987363396974L232.065870222104,129.439383932589L231.699722049983,128.891404468203L231.333573877862,128.343425003817L230.967425705741,127.795445539432L230.886731079148,127.674677496256A1.57815,1.57815,0,1,0,229.136684845136,125.055548217503L226.642276008228,126.722258916563A1.57815000000001,1.57815000000001,0,1,0,228.39232224224,129.341388195315L228.473016868833,129.462156238491L228.839165040954,130.010135702876L229.205313213075,130.558115167262L229.571461385196,131.106094631648L229.834660537691,131.5"/>
    <path offsetable="1" class="production_part_notch" id="J1_notch_7_offset" stroke="#0000CC" stroke-width="0.25" fill="#FFFFFF" fill-opacity="0.5" style="stroke:#0000CC;" d="M232.195650,132.333272L231.917235,131.916594L231.551087,131.368615A1.4998499999995,1.4998499999995,0,0,1,231.551086868334,131.368614875354L231.184939,130.820635L230.818791,130.272656A1.49984999999948,1.49984999999948,0,0,1,230.818790524092,130.272655946583L230.086494,129.176697L229.720346,128.628718A1.4998499999995,1.4998499999995,0,0,1,229.720346007726,128.628717553423L229.639651,128.507950A1.4998500000006,1.4998500000006,0,0,1,230.133876446034,126.377465129718A0.0783,0.0783,0,1,0,230.047047804868,126.247516884896A1.49984999999955,1.49984999999955,0,0,1,229.969956859131,126.302627915515L227.475548,127.969339A1.49985000000031,1.49985000000031,0,0,1,227.395130641336,128.019471283104A0.0783000000000103,0.0783000000000103,0,1,0,227.481959282502,128.149419527926A1.49985000000001,1.49985000000001,0,0,1,229.639401940254,128.508116181324L229.720097,128.628884L230.086245,129.176864A1.49984999999951,1.49984999999951,0,0,1,230.086244738966,129.176863688882L230.452393,129.724843L230.818541,130.272823L231.081740,130.666728" offset="1.5"/>
    <path offsetable="1" class="production_part_notch" id="J1_notch_8" stroke="#F6921E" stroke-width="0.25" fill="none" fill-opacity="0.5" style="stroke:#F6921E;" d="M211.549287697573,131.5L211.38570321454,131.168283483131L211.114200005517,130.617729438236L210.842696796494,130.067175393341L210.57119358747,129.516621348446L210.299690378447,128.966067303551L210.028187169424,128.415513258655L209.792377289475,127.937338125112A1.57815000000001,1.57815000000001,0,1,0,208.399167915285,125.112188989284L205.708549690687,126.439055059942A1.57814999999999,1.57814999999999,0,1,0,207.101759064877,129.264204195769L207.337568944826,129.742379329313L207.609072153849,130.292933374208L207.880575362873,130.843487419103L208.152078571896,131.394041463998L208.204331539274,131.5"/>
    <path offsetable="1" class="production_part_notch" id="J1_notch_8_offset" stroke="#0000CC" stroke-width="0.25" fill="#FFFFFF" fill-opacity="0.5" style="stroke:#0000CC;" d="M210.204113,132.163367L210.040529,131.831650L209.497522,130.730542L209.226019,130.179988A1.49985000000018,1.49985000000018,0,0,1,209.226019006082,130.179988040471L208.683013,129.078880L208.447203,128.600705A1.49984999999973,1.49984999999973,0,0,1,209.215283622818,126.552956341642A0.0783000000000103,0.0783000000000103,0,1,0,209.146159462296,126.412786410162A1.49985000000013,1.49985000000013,0,0,1,209.06253460731,126.457363570672L206.371916,127.784230A1.49985000000018,1.49985000000018,0,0,1,206.285643357338,127.823436843415A0.07829999999999,0.07829999999999,0,1,0,206.35476751786,127.963606774895A1.49984999999964,1.49984999999964,0,0,1,208.446933646265,128.600837503744L208.682744,129.079013L208.954247,129.629567L209.225750,130.180121A1.49985000000018,1.49985000000018,0,0,1,209.225749944261,130.180120727078L209.497253,130.730675A1.49985000000018,1.49985000000018,0,0,1,209.497253153286,130.730674771977L209.549506,130.836633" offset="1.5"/>
    <path offsetable="1" class="production_part_notch" id="J1_notch_9" stroke="#F6921E" stroke-width="0.25" fill="none" fill-opacity="0.5" style="stroke:#F6921E;" d="M189.304162398464,131.5L189.222326902437,131.258920402703L189.015724626043,130.650289722725L188.80912234965,130.041659042747L188.602520073256,129.433028362769L188.395917796863,128.824397682791L188.18931552047,128.215767002813L188.168838454207,128.155443510832A1.57815,1.57815,0,1,0,187.156304138503,125.172613602922L184.315513750017,126.136931998832A1.57815,1.57815,0,1,0,185.328048065722,129.119761906741L185.348525131984,129.180085398722L185.555127408378,129.7887160787L185.761729684771,130.397346758678L185.968331961165,131.005977438656L186.136030023587,131.5"/>
    <path offsetable="1" class="production_part_notch" id="J1_notch_9_offset" stroke="#0000CC" stroke-width="0.25" fill="#FFFFFF" fill-opacity="0.5" style="stroke:#0000CC;" d="M187.883909,131.982111L187.802074,131.741031L187.595471,131.132401A1.49985000000013,1.49985000000013,0,0,1,187.595471471319,131.132400704759L187.388869,130.523770L187.182267,129.915139A1.4998500000001,1.4998500000001,0,0,1,187.182266918532,129.915139344803L186.769062,128.697878L186.748585,128.637554A1.49984999999953,1.49984999999953,0,0,1,187.777379986645,126.707579466568A0.0783,0.0783,0,1,0,187.727143040318,126.559586194819A1.49984999999962,1.49984999999962,0,0,1,187.638415120538,126.592866757645L184.797625,127.557185A1.49984999999979,1.49984999999979,0,0,1,184.706972217575,127.584796043098A0.0783,0.0783,0,1,0,184.757209163902,127.732789314846A1.49984999999965,1.49984999999965,0,0,1,186.748301220449,128.637650924716L186.768778,128.697974L186.975381,129.306605A1.4998500000001,1.4998500000001,0,0,1,186.975380563102,129.306605096666L187.181983,129.915236L187.388585,130.523866A1.4998500000001,1.4998500000001,0,0,1,187.388585115889,130.523866456623L187.556283,131.017889" offset="1.5"/>
    <path offsetable="1" class="production_part_notch" id="J1_notch_10" stroke="#F6921E" stroke-width="0.25" fill="none" fill-opacity="0.5" style="stroke:#F6921E;" d="M166.84950794079,131.5L166.73902971952,130.944588475193L166.618637842066,130.339337635136L166.498245964612,129.734086795079L166.377854087157,129.128835955021L166.270037336782,128.586804547947A1.57815,1.57815,0,1,0,165.655502822431,125.497330914677L162.713146981221,126.082601880725A1.57815,1.57815,0,1,0,163.327681495572,129.172075513995L163.435498245948,129.71410692107L163.555890123402,130.319357761127L163.676282000856,130.924608601184L163.790734466165,131.5"/>
    <path offsetable="1" class="production_part_notch" id="J1_notch_10_offset" stroke="#0000CC" stroke-width="0.25" fill="#FFFFFF" fill-opacity="0.5" style="stroke:#0000CC;" d="M165.378477,131.792606L165.267999,131.237195A1.49984999999965,1.49984999999965,0,0,1,165.267998916707,131.237194694668L165.027215,130.026693L164.906823,129.421442L164.799007,128.879411A1.49985000000004,1.49985000000004,0,0,1,166.070912031227,127.10023159811A0.0783,0.0783,0,1,0,166.040421867176,126.946947192004A1.49984999999961,1.49984999999961,0,0,1,165.948109041907,126.96836171749L163.005753,127.553633A1.49985000000024,1.49985000000024,0,0,1,162.912272286776,127.569174830562A0.0783,0.0783,0,1,0,162.942762450827,127.722459236668A1.49984999999959,1.49984999999959,0,0,1,164.798712298384,128.879469294518L164.906529,129.421501A1.49984999999945,1.49984999999945,0,0,1,164.906529048761,129.421500701595L165.026921,130.026752L165.147313,130.632002L165.261765,131.207394" offset="1.5"/>
    <path offsetable="1" class="production_part_notch" id="J1_notch_11" stroke="#F6921E" stroke-width="0.25" fill="none" fill-opacity="0.5" style="stroke:#F6921E;" d="M144.29066444413,131.5L144.260654730206,131.042140243526L144.220779451024,130.433761047957L144.180904171842,129.825381852389L144.141028892659,129.21700265682L144.10779707464,128.709983091609A1.57815,1.57815,0,1,0,143.901777217565,125.566727483408L140.908200447849,125.762936871098A1.57815,1.57815,0,1,0,141.114220304924,128.9061924793L141.147452122943,129.41321204451L141.187327402126,130.021591240079L141.227202681308,130.629970435648L141.267077960491,131.238349631217L141.284227431708,131.5"/>
    <path offsetable="1" class="production_part_notch" id="J1_notch_11_offset" stroke="#0000CC" stroke-width="0.25" fill="#FFFFFF" fill-opacity="0.5" style="stroke:#0000CC;" d="M142.794026,131.598095L142.764016,131.140235L142.724141,130.531856L142.684265,129.923477L142.644390,129.315098L142.611158,128.808078A1.49984999999958,1.49984999999958,0,0,1,144.104412020282,127.210136911527A0.0783,0.0783,0,1,0,144.094190333666,127.054184109751A1.4998499999998,1.4998499999998,0,0,1,143.999872100941,127.063366189427L141.006295,127.259576A1.49984999999959,1.49984999999959,0,0,1,140.911585502215,127.26278305118A0.0783,0.0783,0,1,0,140.92180718883,127.418735852956A1.49984999999988,1.49984999999988,0,0,1,142.610859010943,128.808097595924L142.644091,129.315117L142.683966,129.923496L142.723841,130.531876L142.763717,131.140255L142.780866,131.401905" offset="1.5"/>
    <path offsetable="1" class="production_part_notch" id="J1_notch_12" stroke="#F6921E" stroke-width="0.25" fill="none" fill-opacity="0.5" style="stroke:#F6921E;" d="M121.715772568293,131.5L121.73292203951,131.238349631217L121.772797318693,130.629970435648L121.812672597875,130.021591240079L121.852547877058,129.41321204451L121.885779695077,128.9061924793A1.57815,1.57815,0,1,0,122.091799552152,125.762936871098L119.098222782436,125.566727483408A1.57815,1.57815,0,1,0,118.892202925361,128.709983091609L118.858971107342,129.21700265682L118.819095828159,129.825381852389L118.779220548977,130.433761047957L118.739345269794,131.042140243526L118.709335555871,131.5"/>
    <path offsetable="1" class="production_part_notch" id="J1_notch_12_offset" stroke="#0000CC" stroke-width="0.25" fill="#FFFFFF" fill-opacity="0.5" style="stroke:#0000CC;" d="M120.219134,131.401905L120.236283,131.140255L120.276159,130.531876L120.316034,129.923496L120.355909,129.315117L120.389141,128.808098A1.49984999999959,1.49984999999959,0,0,1,122.078192811122,127.41873585295A0.0783,0.0783,0,1,0,122.088414497835,127.26278305118A1.49984999999975,1.49984999999975,0,0,1,121.993704668776,127.259575577117L119.000128,127.063366A1.49984999999959,1.49984999999959,0,0,1,118.905809666383,127.054184109757A0.0783,0.0783,0,1,0,118.89558797967,127.210136911527A1.49984999999974,1.49984999999974,0,0,1,120.38884163138,128.808077974985L120.355610,129.315098L120.315735,129.923477L120.275859,130.531856L120.235984,131.140235L120.205974,131.598095" offset="1.5"/>
    <path offsetable="1" class="production_part_notch" id="J1_notch_13" stroke="#F6921E" stroke-width="0.25" fill="none" fill-opacity="0.5" style="stroke:#F6921E;" d="M99.209265533835,131.5L99.323717999144,130.924608601185L99.444109876598,130.319357761128L99.564501754052,129.71410692107L99.672318504428,129.172075513995A1.57815,1.57815,0,1,0,100.286853018779,126.082601880725L97.344497177569,125.497330914677A1.57815,1.57815,0,1,0,96.729962663218,128.586804547947L96.622145912843,129.128835955022L96.501754035388,129.734086795079L96.381362157934,130.339337635137L96.26097028048,130.944588475194L96.15049205921,131.5"/>
    <path offsetable="1" class="production_part_notch" id="J1_notch_13_offset" stroke="#0000CC" stroke-width="0.25" fill="#FFFFFF" fill-opacity="0.5" style="stroke:#0000CC;" d="M97.738235,131.207394L97.852687,130.632002L97.973079,130.026752L98.093471,129.421501A1.49985000000004,1.49985000000004,0,0,1,98.0934709512395,129.421500701593L98.201288,128.879469A1.49984999999994,1.49984999999994,0,0,1,100.057237549126,127.722459236655A0.0783,0.0783,0,1,0,100.087727713273,127.569174830569A1.49985000000025,1.49985000000025,0,0,1,99.9942467993033,127.553632683538L97.051891,126.968362A1.49985000000018,1.49985000000018,0,0,1,96.9595781328711,126.946947192017A0.0783,0.0783,0,1,0,96.9290879687242,127.100231598103A1.49985000000028,1.49985000000028,0,0,1,98.200993466031,128.879410767422L98.093177,129.421442A1.49985000000004,1.49985000000004,0,0,1,98.0931767156554,129.4214421745L97.972785,130.026693L97.852393,130.631944L97.732001,131.237195A1.49984999999994,1.49984999999994,0,0,1,97.7320010832923,131.237194694672L97.621523,131.792606" offset="1.5"/>
    <path offsetable="1" class="production_part_notch" id="J1_notch_14" stroke="#F6921E" stroke-width="0.25" fill="none" fill-opacity="0.5" style="stroke:#F6921E;" d="M76.8639699764113,131.5L77.0316680388339,131.005977438657L77.2382703152273,130.397346758678L77.4448725916208,129.7887160787L77.6514748680143,129.180085398722L77.6719519342767,129.119761906741A1.57815,1.57815,0,1,0,78.6844862499816,126.136931998832L75.8436958614963,125.172613602922A1.57815,1.57815,0,1,0,74.8311615457914,128.155443510832L74.810684479529,128.215767002813L74.6040822031355,128.824397682791L74.397479926742,129.433028362769L74.1908776503486,130.041659042747L73.9842753739551,130.650289722725L73.7776730975616,131.258920402703L73.6958376015342,131.5"/>
    <path offsetable="1" class="production_part_notch" id="J1_notch_14_offset" stroke="#0000CC" stroke-width="0.25" fill="#FFFFFF" fill-opacity="0.5" style="stroke:#0000CC;" d="M75.443717,131.017889L75.611415,130.523866L75.818017,129.915236A1.49984999999994,1.49984999999994,0,0,1,75.8180171605041,129.915235776643L76.024619,129.306605L76.231222,128.697974L76.251699,128.637651A1.49985000000014,1.49985000000014,0,0,1,78.2427908360518,127.732789314827A0.0783,0.0783,0,1,0,78.2930277824709,127.58479604311A1.49984999999963,1.49984999999963,0,0,1,78.2023752679464,127.557185153555L75.361585,126.592867A1.49984999999986,1.49984999999986,0,0,1,75.2728569597279,126.559586194839A0.0783,0.0783,0,1,0,75.2226200133088,126.707579466555A1.49985000000039,1.49985000000039,0,0,1,76.2514147005151,128.637554492866L76.230938,128.697878A1.49985000000013,1.49985000000013,0,0,1,76.2309376342522,128.697877984848L75.817733,129.915139L75.611131,130.523770L75.197926,131.741031L75.116091,131.982111" offset="1.5"/>
    <path offsetable="1" class="production_part_notch" id="J1_notch_15" stroke="#F6921E" stroke-width="0.25" fill="none" fill-opacity="0.5" style="stroke:#F6921E;" d="M54.7956684607278,131.5L54.8479214281065,131.394041463997L55.1194246371296,130.843487419102L55.3909278461527,130.292933374207L55.6624310551758,129.742379329312L55.8982409351244,129.264204195769A1.57815,1.57815,0,1,0,57.2914503093145,126.439055059942L54.6008320847165,125.112188989284A1.57815,1.57815,0,1,0,53.2076227105264,127.937338125112L52.9718128305778,128.415513258655L52.7003096215547,128.96606730355L52.4288064125316,129.516621348445L52.1573032035085,130.06717539334L51.8857999944854,130.617729438235L51.6142967854623,131.16828348313L51.450712302429,131.5"/>
    <path offsetable="1" class="production_part_notch" id="J1_notch_15_offset" stroke="#0000CC" stroke-width="0.25" fill="#FFFFFF" fill-opacity="0.5" style="stroke:#0000CC;" d="M53.450494,130.836633L53.502747,130.730675A1.4998500000002,1.4998500000002,0,0,1,53.5027468467188,130.730674771972L54.317256,129.079013L54.553066,128.600838A1.4998500000001,1.4998500000001,0,0,1,56.6452324820992,127.96360677487A0.0783,0.0783,0,1,0,56.7143566427088,127.823436843434A1.49985000000029,1.49985000000029,0,0,1,56.6280836172891,127.78422964133L53.937465,126.457364A1.49985000000037,1.49985000000037,0,0,1,53.8538405377479,126.412786410186A0.0783,0.0783,0,1,0,53.7847163771382,126.552956341623A1.49984999999988,1.49984999999988,0,0,1,54.5527972919142,128.600704817137L54.316987,129.078880L52.959471,131.831650L52.795887,132.163367" offset="1.5"/>
    <path offsetable="1" class="production_part_notch" id="J1_notch_16" stroke="#F6921E" stroke-width="0.25" fill="none" fill-opacity="0.5" style="stroke:#F6921E;" d="M33.1653394623107,131.5L33.4285386148056,131.106094631648L33.7946867869265,130.558115167262L34.1608349590475,130.010135702876L34.5269831311685,129.462156238491L34.6076777577615,129.341388195315A1.57815,1.57815,0,1,0,36.3577239917733,126.722258916562L33.8633151548657,125.055548217504A1.57815,1.57815,0,1,0,32.1132689208539,127.674677496257L32.0325742942609,127.795445539432L31.6664261221399,128.343425003817L31.300277950019,128.891404468203L30.934129777898,129.439383932589L30.567981605777,129.987363396974L30.2018334336561,130.53534286136L29.8356852615351,131.083322325746L29.5572701407004,131.5"/>
    <path offsetable="1" class="production_part_notch" id="J1_notch_16_offset" stroke="#0000CC" stroke-width="0.25" fill="#FFFFFF" fill-opacity="0.5" style="stroke:#0000CC;" d="M31.918260,130.666728L32.181459,130.272823L32.547607,129.724843L32.913755,129.176864A1.49984999999993,1.49984999999993,0,0,1,32.913755261036,129.176863688881L33.279903,128.628884L33.360598,128.508116A1.49985000000011,1.49985000000011,0,0,1,35.5180407174555,128.149419527892A0.0783,0.0783,0,1,0,35.6048693587029,128.019471283125A1.49984999999985,1.49984999999985,0,0,1,35.5244519777791,127.969338614574L33.030043,126.302628A1.49984999999989,1.49984999999989,0,0,1,32.9529521951717,126.247516884927A0.0783,0.0783,0,1,0,32.8661235539242,126.377465129694A1.49984999999985,1.49984999999985,0,0,1,33.3603486188651,128.507949510253L33.279654,128.628718L32.913506,129.176697L32.181209,130.272656A1.49984999999993,1.49984999999993,0,0,1,32.1812094759094,130.272655946584L31.815061,130.820635L31.448913,131.368615L31.082765,131.916594A1.49984999999993,1.49984999999993,0,0,1,31.0827649595467,131.916594339741L30.804350,132.333272" offset="1.5"/>
    <path offsetable="1" class="production_part_notch" id="J1_notch_17" stroke="#F6921E" stroke-width="0.25" fill="none" fill-opacity="0.5" style="stroke:#F6921E;" d="M12.2191704178069,131.5L12.2340171624346,131.483070532387L12.6726391483633,130.982918014688L13.111261134292,130.482765496989L13.5498831202206,129.98261297929L13.9885051061493,129.482460461591L14.1046757182275,129.349993266654A1.57815,1.57815,0,1,0,16.1816150357927,126.981697873095L13.9260956133559,125.003660427795A1.57815,1.57815,0,1,0,11.8491562957906,127.371955821354L11.7329856837125,127.50442301629L11.2943636977838,128.004575533989L10.8557417118551,128.504728051688L10.4171197259264,129.004880569388L9.9784977399977,129.505033087087L9.539875754069,130.005185604786L9.1012537681404,130.505338122485L8.6626317822117,131.005490640184L8.2289587129233,131.5"/>
    <path offsetable="1" class="production_part_notch" id="J1_notch_17_offset" stroke="#0000CC" stroke-width="0.25" fill="#FFFFFF" fill-opacity="0.5" style="stroke:#0000CC;" d="M11.091523,130.511080L11.106370,130.494151L11.983614,129.493846L12.422236,128.993693L12.860858,128.493541L12.977029,128.361073A1.49985000000017,1.49985000000017,0,0,1,15.1628335280047,128.287048267086A0.0783,0.0783,0,1,0,15.2658809877646,128.169545159484A1.49984999999987,1.49984999999987,0,0,1,15.1926952150149,128.109344808342L12.937176,126.131307A1.49984999999972,1.49984999999972,0,0,1,12.8679378035791,126.066605427364A0.0783,0.0783,0,1,0,12.7648903438192,126.184108534965A1.49985000000019,1.49985000000019,0,0,1,12.9768032310356,128.360875642135L12.860633,128.493343L11.983389,129.493648L11.544767,129.993800A1.49985000000009,1.49985000000009,0,0,1,11.5447666611736,129.993800390166L11.106145,130.493953L10.667523,130.994105L10.228901,131.494258L9.790279,131.994410L9.356606,132.488920" offset="1.5"/>
    <path offsetable="1" class="production_part_notch" id="J1_notch_18" stroke="#F6921E" stroke-width="0.25" fill="none" fill-opacity="0.5" style="stroke:#F6921E;" d="M0,123.271041287074L0.494509359816298,122.837368217786L0.994661877515399,122.398746231857L1.4948143952145,121.960124245928L1.9949669129136,121.52150226L2.4951194306126,121.082880274071L2.9952719483117,120.644258288142L3.4954244660107,120.205636302214L3.9955769837098,119.767014316285L4.1280441786464,119.650843704207A1.57815,1.57815,0,1,0,6.4963395722051,117.573904386642L4.5183021269051,115.318384964204A1.57815,1.57815,0,1,0,2.1500067333463,117.39532428177L2.0175395384097,117.511494893848L1.5173870207107,117.950116879776L1.0172345030116,118.388738865705L0.517081985312497,118.827360851634L0.0169294676135001,119.265982837562L0,119.28082958219"/>
    <path offsetable="1" class="production_part_notch" id="J1_notch_18_offset" stroke="#0000CC" stroke-width="0.25" fill="#FFFFFF" fill-opacity="0.5" style="stroke:#0000CC;" d="M-0.988920,122.143394L-0.494410,121.709721L0.005742,121.271099L0.505895,120.832477A1.49985000000001,1.49985000000001,0,0,1,0.5058945744375,120.83247731068L1.006047,120.393855L2.006352,119.516611A1.49985000000001,1.49985000000001,0,0,1,2.0063521275346,119.516611352894L2.506505,119.077989L3.006657,118.639367A1.49985000000001,1.49985000000001,0,0,1,3.0066571629323,118.639367381037L3.139124,118.523197A1.49985000000026,1.49985000000026,0,0,1,5.3158914650072,118.735109656142A0.0783,0.0783,0,1,0,5.433394572673,118.632062196456A1.49985000000017,1.49985000000017,0,0,1,5.3686926369574,118.56282420742L3.390655,116.307305A1.49985000000032,1.49985000000032,0,0,1,3.3304548405478,116.234119012273A0.0783,0.0783,0,1,0,3.2129517328819,116.33716647196A1.49984999999993,1.49984999999993,0,0,1,3.1389265541237,118.522971217018L3.006459,118.639142L2.506307,119.077764L1.506002,119.955008A1.49985000000001,1.49985000000001,0,0,1,1.5060018060895,119.955007786882L1.005849,120.393630A1.49985,1.49985,0,0,1,1.0058492883894,120.393629772811L0.988920,120.408477" offset="1.5"/>
    <path offsetable="1" class="production_part_notch" id="J1_notch_19" stroke="#F6921E" stroke-width="0.25" fill="none" fill-opacity="0.5" style="stroke:#F6921E;" d="M0,101.942729859298L0.416677674254498,101.664314738463L0.964657138640099,101.298166566342L1.5126366030257,100.932018394221L2.0606160674113,100.5658702221L2.6085955317969,100.199722049979L3.1565749961825,99.8335738778584L3.7045544605682,99.4674257057375L3.8253225037431,99.3867310791447A1.57815,1.57815,0,1,0,6.4444517824962,97.6366848451331L4.7777410834374,95.1422760082255A1.57815,1.57815,0,1,0,2.1586118046843,96.8923222422371L2.0378437615094,96.9730168688299L1.4898642971238,97.3391650409508L0.941884832738098,97.7053132130717L0.393905368352501,98.0714613851925L0,98.3346605376874"/>
    <path offsetable="1" class="production_part_notch" id="J1_notch_19_offset" stroke="#0000CC" stroke-width="0.25" fill="#FFFFFF" fill-opacity="0.5" style="stroke:#0000CC;" d="M-0.833272,100.695650L-0.416594,100.417235L0.131385,100.051087L0.679365,99.684939L1.775324,98.952642A1.49985000000001,1.49985000000001,0,0,1,1.7753235178029,98.9526423519667L2.323303,98.586494L2.871282,98.220346L2.992050,98.139651A1.49985000000001,1.49985000000001,0,0,1,5.1225348702818,98.6338764460322A0.0783,0.0783,0,1,0,5.2524831151034,98.5470478048662A1.49985000000001,1.49985000000001,0,0,1,5.1973720844842,98.4699568591276L3.530661,95.975548A1.49985000000003,1.49985000000003,0,0,1,3.4805287168986,95.895130641338A0.0783,0.0783,0,1,0,3.350580472077,95.9819592825041A1.49984999999998,1.49984999999998,0,0,1,2.9918838186788,98.139401940249L2.871116,98.220097A1.49985000000001,1.49985000000001,0,0,1,2.8711157755038,98.2200965668419L2.323136,98.586245A1.49985000000001,1.49985000000001,0,0,1,2.3231363111181,98.5862447389629L1.775157,98.952393L1.227177,99.318541L0.833272,99.581740" offset="1.5"/>
    <path offsetable="1" class="production_part_notch" id="J1_notch_20" stroke="#F6921E" stroke-width="0.25" fill="none" fill-opacity="0.5" style="stroke:#F6921E;" d="M0,80.0492876975701L0.331716516869101,79.885703214537L0.8822705617643,79.614200005514L1.4328246066594,79.3426967964909L1.9833786515546,79.0711935874678L2.5339326964498,78.7996903784447L3.084486741345,78.5281871694216L3.562661874888,78.292377289473A1.57815,1.57815,0,1,0,6.387811010716,76.8991679152831L5.060944940059,74.2085496906851A1.57815,1.57815,0,1,0,2.235795804231,75.6017590648749L1.757620670688,75.8375689448236L1.2070666257928,76.1090721538466L0.656512580897599,76.3805753628697L0.105958536002499,76.6520785718928L0,76.7043315392714"/>
    <path offsetable="1" class="production_part_notch" id="J1_notch_20_offset" stroke="#0000CC" stroke-width="0.25" fill="#FFFFFF" fill-opacity="0.5" style="stroke:#0000CC;" d="M-0.663367,78.704113L-0.331650,78.540529A1.49985,1.49985,0,0,1,-0.33165017515569,78.5405286331491L0.218904,78.269025L0.769458,77.997522L1.320012,77.726019L1.870566,77.454516L2.421120,77.183013L2.899295,76.947203A1.49984999999996,1.49984999999996,0,0,1,4.94704365835859,77.7152836228167A0.0783,0.0783,0,1,0,5.08721358983854,77.6461594622948A1.49985000000001,1.49985000000001,0,0,1,5.04263642932819,77.5625346073081L3.715770,74.871916A1.49985000000001,1.49985000000001,0,0,1,3.67656315658827,74.7856433573411A0.0783,0.0783,0,1,0,3.53639322510831,74.854767517863A1.49984999999998,1.49984999999998,0,0,1,2.89916249625612,76.9469336462626L2.420987,77.182744A1.49984999999997,1.49984999999997,0,0,1,2.42098736271276,77.1827435262115L1.870433,77.454247L1.319879,77.725750L0.769325,77.997253A1.49985000000003,1.49985000000003,0,0,1,0.76932522802733,77.9972531532807L0.663367,78.049506" offset="1.5"/>
    <path offsetable="1" class="production_part_notch" id="J1_notch_21" stroke="#F6921E" stroke-width="0.25" fill="none" fill-opacity="0.5" style="stroke:#F6921E;" d="M0,57.8041623984662L0.241079597296898,57.7223269024387L0.849710277274998,57.5157246260452L1.4583409572531,57.3091223496517L2.0669716372312,57.1025200732582L2.6756023172092,56.8959177968648L3.2842329971873,56.6893155204713L3.3445564891681,56.6688384542089A1.57815,1.57815,0,1,0,6.3273863970776,55.656304138504L5.3630680011682,52.8155137500186A1.57815,1.57815,0,1,0,2.3802380932586,53.8280480657236L2.3199146012778,53.848525131986L1.7112839212997,54.0551274083795L1.1026532413217,54.2617296847729L0.494022561343599,54.4683319611664L0,54.6360300235891"/>
    <path offsetable="1" class="production_part_notch" id="J1_notch_21_offset" stroke="#0000CC" stroke-width="0.25" fill="#FFFFFF" fill-opacity="0.5" style="stroke:#0000CC;" d="M-0.482111,56.383909L-0.241031,56.302074L0.367599,56.095471L0.976230,55.888869L1.584861,55.682267A1.49984999999998,1.49984999999998,0,0,1,1.58486065519635,55.6822669185349L2.193491,55.475665L2.802122,55.269062L2.862446,55.248585A1.49984999999998,1.49984999999998,0,0,1,4.79242053343276,56.2773799866474A0.0783,0.0783,0,1,0,4.94041380518101,56.227143040321A1.49985,1.49985,0,0,1,4.90713324235435,56.1384151205389L3.942815,53.297625A1.49985,1.49985,0,0,1,3.91520395690379,53.206972217581A0.0783,0.0783,0,1,0,3.76721068515553,53.2572091639074A1.49985000000001,1.49985000000001,0,0,1,2.86234907529372,55.2483012204468L2.802026,55.268778L2.193395,55.475381A1.49984999999998,1.49984999999998,0,0,1,2.19339490333456,55.4753805631028L1.584764,55.681983L0.976134,55.888585L0.482111,56.056283" offset="1.5"/>
    <path offsetable="1" class="production_part_notch" id="J1_notch_22" stroke="#F6921E" stroke-width="0.25" fill="none" fill-opacity="0.5" style="stroke:#F6921E;" d="M0,35.3495079407888L0.555411524806,35.2390297195197L1.1606623648635,35.1186378420653L1.7659132049209,34.998245964611L2.3711640449784,34.8778540871566L2.9131954520531,34.7700373367812A1.57815,1.57815,0,1,0,6.0026690853233,34.1555028224304L5.4173981192749,31.2131469812208A1.57815,1.57815,0,1,0,2.3279244860047,31.8276814955716L1.78589307893,31.9354982459469L1.1806422388726,32.0558901234013L0.575391398815099,32.1762820008556L0,32.2907344661638"/>
    <path offsetable="1" class="production_part_notch" id="J1_notch_22_offset" stroke="#0000CC" stroke-width="0.25" fill="#FFFFFF" fill-opacity="0.5" style="stroke:#0000CC;" d="M-0.292606,33.878477L0.262805,33.767999L0.868056,33.647607L1.473307,33.527215L2.078558,33.406823L2.620589,33.299007A1.49985000000003,1.49985000000003,0,0,1,4.39976840189018,34.5709120312254A0.0783,0.0783,0,1,0,4.55305280799564,34.5404218671745A1.49985,1.49985,0,0,1,4.53163828251052,34.4481090419063L3.946367,31.505753A1.49985,1.49985,0,0,1,3.93082516943782,31.4122722867766A0.0783,0.0783,0,1,0,3.77754076333236,31.4427624508275A1.49985,1.49985,0,0,1,2.62053070548044,33.2987122983844L2.078499,33.406529L1.473248,33.526921L0.867998,33.647313L0.292606,33.761765" offset="1.5"/>
    <path offsetable="1" class="production_part_notch" id="J1_notch_23" stroke="#F6921E" stroke-width="0.25" fill="none" fill-opacity="0.5" style="stroke:#F6921E;" d="M0,12.790664444129L0.457859756474199,12.760654730206L1.0662389520429,12.7207794510237L1.6746181476116,12.6809041718413L2.2829973431802,12.641028892659L2.7900169083907,12.6077970746401A1.57815,1.57815,0,1,0,5.9332725165923,12.4017772175651L5.7370631289019,9.4082004478493A1.57815,1.57815,0,1,0,2.5938075207003,9.61422030492425L2.0867879554898,9.64745212294322L1.4784087599211,9.68732740212554L0.870029564352399,9.72720268130786L0.261650368783799,9.76707796049018L0,9.78422743170715"/>
    <path offsetable="1" class="production_part_notch" id="J1_notch_23_offset" stroke="#0000CC" stroke-width="0.25" fill="#FFFFFF" fill-opacity="0.5" style="stroke:#0000CC;" d="M-0.098095,11.294026L0.359765,11.264016L0.968144,11.224141L1.576523,11.184265L2.184902,11.144390L2.691922,11.111158A1.49984999999997,1.49984999999997,0,0,1,4.28986308847283,12.604412020277A0.0783,0.0783,0,1,0,4.44581589024856,12.5941903336619A1.49984999999999,1.49984999999999,0,0,1,4.43663381057288,12.4998721009409L4.240424,9.506295A1.49985,1.49985,0,0,1,4.23721694881977,9.41158550221234A0.0783,0.0783,0,1,0,4.08126414704404,9.42180718882744A1.49985,1.49985,0,0,1,2.69190240407612,11.1108590109437L2.184883,11.144091L1.576504,11.183966L0.968124,11.223841L0.359745,11.263717L0.098095,11.280866" offset="1.5"/>
    <path offsetable="1" class="production_part_no_notch_contour" id="J1_outer_contour" stroke="#F6921E" stroke-width="0.25" fill="none" fill-opacity="0.5" style="stroke:#F6921E;" d="M263,9.78422743170704L263,12.7906644441289L263,32.2907344661633L263,35.3495079407882L263,54.6360300235887L263,57.8041623984658L263,76.7043315392714L263,80.04928769757L263,98.3346605376892L263,101.9427298593L263,119.280829582191L263,123.271041287075L263,131.5L254.771041287071,131.5L250.780829582188,131.5L233.442729859302,131.5L229.834660537691,131.5L211.549287697573,131.5L208.204331539274,131.5L189.304162398464,131.5L186.136030023587,131.5L166.84950794079,131.5L163.790734466165,131.5L144.29066444413,131.5L141.284227431708,131.5L121.715772568293,131.5L118.709335555871,131.5L99.209265533835,131.5L96.15049205921,131.5L76.8639699764113,131.5L73.6958376015342,131.5L54.7956684607278,131.5L51.450712302429,131.5L33.1653394623107,131.5L29.5572701407004,131.5L12.2191704178069,131.5L8.2289587129233,131.5L0,131.5L0,123.271041287074L0,119.28082958219L0,101.942729859298L0,98.3346605376874L0,80.0492876975701L0,76.7043315392714L0,57.8041623984662L0,54.6360300235891L0,35.3495079407888L0,32.2907344661638L0,12.790664444129L0,9.78422743170715L0,0L37,0L37,94.4999999999999L226,94.4999999999999L226,0L263,0L263,9.78422743170704Z"/>
    <path offsetable="1" class="production_part_no_notch_contour" id="J1_outer_contour_offset" stroke="#0000FF" stroke-width="0.25" fill="#FFFFFF" fill-opacity="0.5" style="stroke:#0000FF;" d="M264.499850,131.500000A1.49984999999998,1.49984999999998,0,0,1,263,132.99985L0.000000,132.999850A1.49985000000001,1.49985000000001,0,0,1,-1.49985,131.5L-1.499850,0.000000A1.49985,1.49985,0,0,1,0,-1.49985L37.000000,-1.499850A1.49985,1.49985,0,0,1,38.49985,0L38.499850,93.000150L224.500150,93.000150L224.500150,0.000000A1.49985000000001,1.49985000000001,0,0,1,226,-1.49985L263.000000,-1.499850A1.49985,1.49985,0,0,1,264.49985,0Z" offset="1.5"/>
  </g>
</g>
<script type="text/javascript">
// <![CDATA[
var slice = {
   "pathspec" : "M1.85,0L28.15,13.15",
   "group" : "joiners",
   "precision" : "1e-05",
   "ribnumber" : "J1",
   "material" : "3mm kiri",
   "slicenumber" : 0,
   "mediumthickness" : "0.3"
}
;
var material = {
   "sheet_x" : 100,
   "sheet_gsm" : 810,
   "ventit" : 0.43,
   "sheet_cols" : 1,
   "panel_x" : 100,
   "laser" : 0,
   "cut_power" : 0.95,
   "air_assist" : 1,
   "dodogbone" : 1,
   "notch_undersize_factor" : 1,
   "keystyle2" : "offset",
   "panel_margin" : 0.3175,
   "sheet_y" : 100,
   "name" : "3mm kiri",
   "sheet_do_panel_splits" : 1,
   "toolname" : "router",
   "dogboneit" : 0.3,
   "mark_z_offset" : 4,
   "rapid_speed" : 20000,
   "keystyle1" : "single",
   "dollars_per_minute" : 1,
   "mark_power" : 0.204,
   "thickness" : 0.3,
   "sheet_do_edge" : 1,
   "cut_speed" : 1900,
   "kerf" : 3,
   "dollars_per_sheet" : 1,
   "sheet_rows" : 1,
   "sheet_swap_time" : 1,
   "panel_y" : 100,
   "color" : "#996633"
}
;
// ]]>
</script>
</svg>
