<svg xmlns="http://www.w3.org/2000/svg" xmlns:xlink="http://www.w3.org/1999/xlink" id="J1_container" x="0" y="0" viewBox="-5.000000 -5.000000 273.000000 141.500000" width="273.000000mm" height="141.500000mm" depth="0.3" material="3mm kiri" >
<!-- dimensions in paths are in millimeters -->
<g transform="translate(0,131.5) scale(1,-1)" >
  <g class="production_part_container"      id="J1_container"      depth="0.3"      material="3mm kiri"   >
    <path class="production_part_label"   id="J1_label" stroke="#00FF00" stroke-width="0.25" fill="none" style="stroke:#00FF00;" d="M0,0M1.28574,2.7L1.28574,0.64287L1.15722,0.25704L1.0287,0.12852L0.77166,2.77555756156289e-16L0.51435,2.77555756156289e-16L0.25731,0.12852L0.12879,0.25704L3.33066907387547e-16,0.64287L3.33066907387547e-16,0.89991M1.96074,2.18565L2.21805,2.31417L2.60361,2.7L2.60361,0M2.60361,-0.81L0,-0.81M0.520722,-0.27L0,-0.81L0.520722,-1.35"/>
    <path offsetable="1" class="production_part_contour" id="J1" stroke="#0000FF" stroke-width="0.25" fill="#FFFFFF" fill-opacity="0.5" style="stroke:#0000FF;" d="M0,0L37,0L37,94.4999999999999L226,94.4999999999999L226,0L263,0L263,9.78422743170704L262.738349631217,9.76707796049009L262.129970435648,9.72720268130777L261.521591240079,9.68732740212545L260.91321204451,9.64745212294313L260.4061924793,9.61422030492415A1.57814999999999,1.57814999999999,0,1,0,257.262936871098,9.40820044784921L257.066727483408,12.401777217565A1.57814999999999,1.57814999999999,0,1,0,260.209983091609,12.6077970746399L260.71700265682,12.6410288926589L261.325381852389,12.6809041718412L261.933761047957,12.7207794510236L262.542140243526,12.7606547302059L263,12.7906644441289L263,32.2907344661633L262.424608601185,32.1762820008552L261.819357761128,32.0558901234008L261.21410692107,31.9354982459465L260.672075513995,31.8276814955711A1.57814999999999,1.57814999999999,0,1,0,257.582601880725,31.2131469812205L256.997330914677,34.1555028224301A1.57814999999999,1.57814999999999,0,1,0,260.086804547947,34.7700373367808L260.628835955022,34.8778540871562L261.234086795079,34.9982459646105L261.839337635137,35.1186378420649L262.444588475194,35.2390297195192L263,35.3495079407882L263,54.6360300235887L262.505977438657,54.4683319611661L261.897346758678,54.2617296847727L261.2887160787,54.0551274083792L260.680085398722,53.8485251319857L260.619761906741,53.8280480657233A1.57815000000001,1.57815000000001,0,1,0,257.636931998832,52.8155137500185L256.672613602922,55.6563041385037A1.57815000000001,1.57815000000001,0,1,0,259.655443510832,56.6688384542086L259.715767002813,56.689315520471L260.324397682791,56.8959177968645L260.933028362769,57.102520073258L261.541659042747,57.3091223496514L262.150289722725,57.5157246260449L262.758920402703,57.7223269024384L263,57.8041623984658L263,76.7043315392714L262.894041463998,76.6520785718931L262.343487419103,76.38057536287L261.792933374208,76.1090721538469L261.242379329313,75.8375689448238L260.764204195769,75.6017590648751A1.57815,1.57815,0,1,0,257.939055059942,74.2085496906852L256.612188989285,76.8991679152832A1.57814999999998,1.57814999999998,0,1,0,259.437338125112,78.2923772894731L259.915513258656,78.5281871694218L260.466067303551,78.7996903784449L261.016621348446,79.071193587468L261.567175393341,79.3426967964911L262.117729438236,79.6142000055142L262.668283483132,79.8857032145373L263,80.04928769757L263,98.3346605376892L262.606094631648,98.0714613851944L262.058115167262,97.7053132130734L261.510135702876,97.3391650409525L260.962156238491,96.9730168688315L260.841388195315,96.8923222422385A1.57814999999998,1.57814999999998,0,1,0,258.222258916562,95.1422760082267L256.555548217504,97.6366848451343A1.57814999999999,1.57814999999999,0,1,0,259.174677496256,99.386731079146L259.295445539432,99.467425705739L259.843425003817,99.83357387786L260.391404468203,100.199722049981L260.939383932589,100.565870222102L261.487363396974,100.932018394223L262.03534286136,101.298166566344L262.583322325745,101.664314738465L263,101.9427298593L263,119.280829582191L262.983070532387,119.265982837564L262.482918014688,118.827360851635L261.982765496989,118.388738865706L261.48261297929,117.950116879778L260.982460461591,117.511494893849L260.849993266654,117.395324281771A1.57815,1.57815,0,1,0,258.481697873095,115.318384964206L256.503660427795,117.573904386642A1.57815,1.57815,0,1,0,258.871955821354,119.650843704208L259.00442301629,119.767014316286L259.504575533989,120.205636302214L260.004728051689,120.644258288143L260.504880569388,121.082880274072L261.005033087087,121.52150226L261.505185604786,121.960124245929L262.005338122485,122.398746231858L262.505490640184,122.837368217786L263,123.271041287075L263,131.5L254.771041287071,131.5L254.337368217783,131.005490640184L253.898746231854,130.505338122485L253.460124245925,130.005185604786L253.021502259997,129.505033087087L252.582880274068,129.004880569388L252.14425828814,128.504728051689L251.705636302211,128.00457553399L251.267014316282,127.50442301629L251.150843704205,127.371955821354A1.57815000000002,1.57815000000002,0,1,0,249.07390438664,125.003660427795L246.818384964202,126.981697873095A1.57815000000002,1.57815000000002,0,1,0,248.895324281767,129.349993266654L249.011494893845,129.48246046159L249.450116879774,129.982612979289L249.888738865702,130.482765496989L250.327360851631,130.982918014688L250.76598283756,131.483070532387L250.780829582188,131.5L233.442729859302,131.5L233.164314738467,131.083322325745L232.798166566346,130.53534286136L232.432018394225,129.987363396974L232.065870222104,129.439383932589L231.699722049983,128.891404468203L231.333573877862,128.343425003817L230.967425705741,127.795445539432L230.886731079148,127.674677496256A1.57815,1.57815,0,1,0,229.136684845136,125.055548217503L226.642276008228,126.722258916563A1.57815000000001,1.57815000000001,0,1,0,228.39232224224,129.341388195315L228.473016868833,129.462156238491L228.839165040954,130.010135702876L229.205313213075,130.558115167262L229.571461385196,131.106094631648L229.834660537691,131.5L211.549287697573,131.5L211.38570321454,131.168283483131L211.114200005517,130.617729438236L210.842696796494,130.067175393341L210.57119358747,129.516621348446L210.299690378447,128.966067303551L210.028187169424,128.415513258655L209.792377289475,127.937338125112A1.57815000000001,1.57815000000001,0,1,0,208.399167915285,125.112188989284L205.708549690687,126.439055059942A1.57814999999999,1.57814999999999,0,1,0,207.101759064877,129.264204195769L207.337568944826,129.742379329313L207.609072153849,130.292933374208L207.880575362873,130.843487419103L208.152078571896,131.394041463998L208.204331539274,131.5L189.304162398464,131.5L189.222326902437,131.258920402703L189.015724626043,130.650289722725L188.80912234965,130.041659042747L188.602520073256,129.433028362769L188.395917796863,128.824397682791L188.18931552047,128.215767002813L188.168838454207,128.155443510832A1.57815,1.57815,0,1,0,187.156304138503,125.172613602922L184.315513750017,126.136931998832A1.57815,1.57815,0,1,0,185.328048065722,129.119761906741L185.348525131984,129.180085398722L185.555127408378,129.7887160787L185.761729684771,130.397346758678L185.968331961165,131.005977438656L186.136030023587,131.5L166.84950794079,131.5L166.73902971952,130.944588475193L166.618637842066,130.339337635136L166.498245964612,129.734086795079L166.377854087157,129.128835955021L166.270037336782,128.586804547947A1.57815,1.57815,0,1,0,165.655502822431,125.497330914677L162.713146981221,126.082601880725A1.57815,1.57815,0,1,0,163.327681495572,129.172075513995L163.435498245948,129.71410692107L163.555890123402,130.319357761127L163.676282000856,130.924608601184L163.790734466165,131.5L144.29066444413,131.5L144.260654730206,131.042140243526L144.220779451024,130.433761047957L144.180904171842,129.825381852389L144.141028892659,129.21700265682L144.10779707464,128.709983091609A1.57815,1.57815,0,1,0,143.901777217565,125.566727483408L140.908200447849,125.762936871098A1.57815,1.57815,0,1,0,141.114220304924,128.9061924793L141.147452122943,129.41321204451L141.187327402126,130.021591240079L141.227202681308,130.629970435648L141.267077960491,131.238349631217L141.284227431708,131.5L121.715772568293,131.5L121.73292203951,131.238349631217L121.772797318693,130.629970435648L121.812672597875,130.021591240079L121.852547877058,129.41321204451L121.885779695077,128.9061924793A1.57815,1.57815,0,1,0,122.091799552152,125.762936871098L119.098222782436,125.566727483408A1.57815,1.57815,0,1,0,118.892202925361,128.709983091609L118.858971107342,129.21700265682L118.819095828159,129.825381852389L118.779220548977,130.433761047957L118.739345269794,131.042140243526L118.709335555871,131.5L99.209265533835,131.5L99.323717999144,130.924608601185L99.444109876598,130.319357761128L99.564501754052,129.71410692107L99.672318504428,129.172075513995A1.57815,1.57815,0,1,0,100.286853018779,126.082601880725L97.344497177569,125.497330914677A1.57815,1.57815,0,1,0,96.729962663218,128.586804547947L96.622145912843,129.128835955022L96.501754035388,129.734086795079L96.381362157934,130.339337635137L96.26097028048,130.944588475194L96.15049205921,131.5L76.8639699764113,131.5L77.0316680388339,131.005977438657L77.2382703152273,130.397346758678L77.4448725916208,129.7887160787L77.6514748680143,129.180085398722L77.6719519342767,129.119761906741A1.57815,1.57815,0,1,0,78.6844862499816,126.136931998832L75.8436958614963,125.172613602922A1.57815,1.57815,0,1,0,74.8311615457914,128.155443510832L74.810684479529,128.215767002813L74.6040822031355,128.824397682791L74.397479926742,129.433028362769L74.1908776503486,130.041659042747L73.9842753739551,130.650289722725L73.7776730975616,131.258920402703L73.6958376015342,131.5L54.7956684607278,131.5L54.8479214281065,131.394041463997L55.1194246371296,130.843487419102L55.3909278461527,130.292933374207L55.6624310551758,129.742379329312L55.8982409351244,129.264204195769A1.57815,1.57815,0,1,0,57.2914503093145,126.439055059942L54.6008320847165,125.112188989284A1.57815,1.57815,0,1,0,53.2076227105264,127.937338125112L52.9718128305778,128.415513258655L52.7003096215547,128.96606730355L52.4288064125316,129.516621348445L52.1573032035085,130.06717539334L51.8857999944854,130.617729438235L51.6142967854623,131.16828348313L51.450712302429,131.5L33.1653394623107,131.5L33.4285386148056,131.106094631648L33.7946867869265,130.558115167262L34.1608349590475,130.010135702876L34.5269831311685,129.462156238491L34.6076777577615,129.341388195315A1.57815,1.57815,0,1,0,36.3577239917733,126.722258916562L33.8633151548657,125.055548217504A1.57815,1.57815,0,1,0,32.1132689208539,127.674677496257L32.0325742942609,127.795445539432L31.6664261221399,128.343425003817L31.300277950019,128.891404468203L30.934129777898,129.439383932589L30.567981605777,129.987363396974L30.2018334336561,130.53534286136L29.8356852615351,131.083322325746L29.5572701407004,131.5L12.2191704178069,131.5L12.2340171624346,131.483070532387L12.6726391483633,130.982918014688L13.111261134292,130.482765496989L13.5498831202206,129.98261297929L13.9885051061493,129.482460461591L14.1046757182275,129.349993266654A1.57815,1.57815,0,1,0,16.1816150357927,126.981697873095L13.9260956133559,125.003660427795A1.57815,1.57815,0,1,0,11.8491562957906,127.371955821354L11.7329856837125,127.50442301629L11.2943636977838,128.004575533989L10.8557417118551,128.504728051688L10.4171197259264,129.004880569388L9.9784977399977,129.505033087087L9.539875754069,130.005185604786L9.1012537681404,130.505338122485L8.6626317822117,131.005490640184L8.2289587129233,131.5L0,131.5L0,123.271041287074L0.494509359816298,122.837368217786L0.994661877515399,122.398746231857L1.4948143952145,121.960124245928L1.9949669129136,121.52150226L2.4951194306126,121.082880274071L2.9952719483117,120.644258288142L3.4954244660107,120.205636302214L3.9955769837098,119.767014316285L4.1280441786464,119.650843704207A1.57815,1.57815,0,1,0,6.4963395722051,117.573904386642L4.5183021269051,115.318384964204A1.57815,1.57815,0,1,0,2.1500067333463,117.39532428177L2.0175395384097,117.511494893848L1.5173870207107,117.950116879776L1.0172345030116,118.388738865705L0.517081985312497,118.827360851634L0.0169294676135001,119.265982837562L0,119.28082958219L0,101.942729859298L0.416677674254498,101.664314738463L0.964657138640099,101.298166566342L1.5126366030257,100.932018394221L2.0606160674113,100.5658702221L2.6085955317969,100.199722049979L3.1565749961825,99.8335738778584L3.7045544605682,99.4674257057375L3.8253225037431,99.3867310791447A1.57815,1.57815,0,1,0,6.4444517824962,97.6366848451331L4.7777410834374,95.1422760082255A1.57815,1.57815,0,1,0,2.1586118046843,96.8923222422371L2.0378437615094,96.9730168688299L1.4898642971238,97.3391650409508L0.941884832738098,97.7053132130717L0.393905368352501,98.0714613851925L0,98.3346605376874L0,80.0492876975701L0.331716516869101,79.885703214537L0.8822705617643,79.614200005514L1.4328246066594,79.3426967964909L1.9833786515546,79.0711935874678L2.5339326964498,78.7996903784447L3.084486741345,78.5281871694216L3.562661874888,78.292377289473A1.57815,1.57815,0,1,0,6.387811010716,76.8991679152831L5.060944940059,74.2085496906851A1.57815,1.57815,0,1,0,2.235795804231,75.6017590648749L1.757620670688,75.8375689448236L1.2070666257928,76.1090721538466L0.656512580897599,76.3805753628697L0.105958536002499,76.6520785718928L0,76.7043315392714L0,57.8041623984662L0.241079597296898,57.7223269024387L0.849710277274998,57.5157246260452L1.4583409572531,57.3091223496517L2.0669716372312,57.1025200732582L2.6756023172092,56.8959177968648L3.2842329971873,56.6893155204713L3.3445564891681,56.6688384542089A1.57815,1.57815,0,1,0,6.3273863970776,55.656304138504L5.3630680011682,52.8155137500186A1.57815,1.57815,0,1,0,2.3802380932586,53.8280480657236L2.3199146012778,53.848525131986L1.7112839212997,54.0551274083795L1.1026532413217,54.2617296847729L0.494022561343599,54.4683319611664L0,54.6360300235891L0,35.3495079407888L0.555411524806,35.2390297195197L1.1606623648635,35.1186378420653L1.7659132049209,34.998245964611L2.3711640449784,34.8778540871566L2.9131954520531,34.7700373367812A1.57815,1.57815,0,1,0,6.0026690853233,34.1555028224304L5.4173981192749,31.2131469812208A1.57815,1.57815,0,1,0,2.3279244860047,31.8276814955716L1.78589307893,31.9354982459469L1.1806422388726,32.0558901234013L0.575391398815099,32.1762820008556L0,32.2907344661638L0,12.790664444129L0.457859756474199,12.760654730206L1.0662389520429,12.7207794510237L1.6746181476116,12.6809041718413L2.2829973431802,12.641028892659L2.7900169083907,12.6077970746401A1.57815,1.57815,0,1,0,5.9332725165923,12.4017772175651L5.7370631289019,9.4082004478493A1.57815,1.57815,0,1,0,2.5938075207003,9.61422030492425L2.0867879554898,9.64745212294322L1.4784087599211,9.68732740212554L0.870029564352399,9.72720268130786L0.261650368783799,9.76707796049018L0,9.78422743170715Z"/>
    <path offsetable="1" class="production_part_notch"   id="J1_notch_0" stroke="#0000CC" stroke-width="0.25" fill="#FFFFFF" fill-opacity="0.5" style="stroke:#0000CC;" d="M263,9.78422743170704L262.738349631217,9.76707796049009L262.129970435648,9.72720268130777L261.521591240079,9.68732740212545L260.91321204451,9.64745212294313L260.4061924793,9.61422030492415A1.57814999999999,1.57814999999999,0,1,0,257.262936871098,9.40820044784921L257.066727483408,12.401777217565A1.57814999999999,1.57814999999999,0,1,0,260.209983091609,12.6077970746399L260.71700265682,12.6410288926589L261.325381852389,12.6809041718412L261.933761047957,12.7207794510236L262.542140243526,12.7606547302059L263,12.7906644441289"/>
    <path offsetable="1" class="production_part_notch"   id="J1_notch_1" stroke="#0000CC" stroke-width="0.25" fill="#FFFFFF" fill-opacity="0.5" style="stroke:#0000CC;" d="M263,32.2907344661633L262.424608601185,32.1762820008552L261.819357761128,32.0558901234008L261.21410692107,31.9354982459465L260.672075513995,31.8276814955711A1.57814999999999,1.57814999999999,0,1,0,257.582601880725,31.2131469812205L256.997330914677,34.1555028224301A1.57814999999999,1.57814999999999,0,1,0,260.086804547947,34.7700373367808L260.628835955022,34.8778540871562L261.234086795079,34.9982459646105L261.839337635137,35.1186378420649L262.444588475194,35.2390297195192L263,35.3495079407882"/>
    <path offsetable="1" class="production_part_notch"   id="J1_notch_2" stroke="#0000CC" stroke-width="0.25" fill="#FFFFFF" fill-opacity="0.5" style="stroke:#0000CC;" d="M263,54.6360300235887L262.505977438657,54.4683319611661L261.897346758678,54.2617296847727L261.2887160787,54.0551274083792L260.680085398722,53.8485251319857L260.619761906741,53.8280480657233A1.57815000000001,1.57815000000001,0,1,0,257.636931998832,52.8155137500185L256.672613602922,55.6563041385037A1.57815000000001,1.57815000000001,0,1,0,259.655443510832,56.6688384542086L259.715767002813,56.689315520471L260.324397682791,56.8959177968645L260.933028362769,57.102520073258L261.541659042747,57.3091223496514L262.150289722725,57.5157246260449L262.758920402703,57.7223269024384L263,57.8041623984658"/>
    <path offsetable="1" class="production_part_notch"   id="J1_notch_3" stroke="#0000CC" stroke-width="0.25" fill="#FFFFFF" fill-opacity="0.5" style="stroke:#0000CC;" d="M263,76.7043315392714L262.894041463998,76.6520785718931L262.343487419103,76.38057536287L261.792933374208,76.1090721538469L261.242379329313,75.8375689448238L260.764204195769,75.6017590648751A1.57815,1.57815,0,1,0,257.939055059942,74.2085496906852L256.612188989285,76.8991679152832A1.57814999999998,1.57814999999998,0,1,0,259.437338125112,78.2923772894731L259.915513258656,78.5281871694218L260.466067303551,78.7996903784449L261.016621348446,79.071193587468L261.567175393341,79.3426967964911L262.117729438236,79.6142000055142L262.668283483132,79.8857032145373L263,80.04928769757"/>
    <path offsetable="1" class="production_part_notch"   id="J1_notch_4" stroke="#0000CC" stroke-width="0.25" fill="#FFFFFF" fill-opacity="0.5" style="stroke:#0000CC;" d="M263,98.3346605376892L262.606094631648,98.0714613851944L262.058115167262,97.7053132130734L261.510135702876,97.3391650409525L260.962156238491,96.9730168688315L260.841388195315,96.8923222422385A1.57814999999998,1.57814999999998,0,1,0,258.222258916562,95.1422760082267L256.555548217504,97.6366848451343A1.57814999999999,1.57814999999999,0,1,0,259.174677496256,99.386731079146L259.295445539432,99.467425705739L259.843425003817,99.83357387786L260.391404468203,100.199722049981L260.939383932589,100.565870222102L261.487363396974,100.932018394223L262.03534286136,101.298166566344L262.583322325745,101.664314738465L263,101.9427298593"/>
    <path offsetable="1" class="production_part_notch"   id="J1_notch_5" stroke="#0000CC" stroke-width="0.25" fill="#FFFFFF" fill-opacity="0.5" style="stroke:#0000CC;" d="M263,119.280829582191L262.983070532387,119.265982837564L262.482918014688,118.827360851635L261.982765496989,118.388738865706L261.48261297929,117.950116879778L260.982460461591,117.511494893849L260.849993266654,117.395324281771A1.57815,1.57815,0,1,0,258.481697873095,115.318384964206L256.503660427795,117.573904386642A1.57815,1.57815,0,1,0,258.871955821354,119.650843704208L259.00442301629,119.767014316286L259.504575533989,120.205636302214L260.004728051689,120.644258288143L260.504880569388,121.082880274072L261.005033087087,121.52150226L261.505185604786,121.960124245929L262.005338122485,122.398746231858L262.505490640184,122.837368217786L263,123.271041287075"/>
    <path offsetable="1" class="production_part_notch"   id="J1_notch_6" stroke="#0000CC" stroke-width="0.25" fill="#FFFFFF" fill-opacity="0.5" style="stroke:#0000CC;" d="M254.771041287071,131.5L254.337368217783,131.005490640184L253.898746231854,130.505338122485L253.460124245925,130.005185604786L253.021502259997,129.505033087087L252.582880274068,129.004880569388L252.14425828814,128.504728051689L251.705636302211,128.00457553399L251.267014316282,127.50442301629L251.150843704205,127.371955821354A1.57815000000002,1.57815000000002,0,1,0,249.07390438664,125.003660427795L246.818384964202,126.981697873095A1.57815000000002,1.57815000000002,0,1,0,248.895324281767,129.349993266654L249.011494893845,129.48246046159L249.450116879774,129.982612979289L249.888738865702,130.482765496989L250.327360851631,130.982918014688L250.76598283756,131.483070532387L250.780829582188,131.5"/>
    <path offsetable="1" class="production_part_notch"   id="J1_notch_7" stroke="#0000CC" stroke-width="0.25" fill="#FFFFFF" fill-opacity="0.5" style="stroke:#0000CC;" d="M233.442729859302,131.5L233.164314738467,131.083322325745L232.798166566346,130.53534286136L232.432018394225,129.987363396974L232.065870222104,129.439383932589L231.699722049983,128.891404468203L231.333573877862,128.343425003817L230.967425705741,127.795445539432L230.886731079148,127.674677496256A1.57815,1.57815,0,1,0,229.136684845136,125.055548217503L226.642276008228,126.722258916563A1.57815000000001,1.57815000000001,0,1,0,228.39232224224,129.341388195315L228.473016868833,129.462156238491L228.839165040954,130.010135702876L229.205313213075,130.558115167262L229.571461385196,131.106094631648L229.834660537691,131.5"/>
    <path offsetable="1" class="production_part_notch"   id="J1_notch_8" stroke="#0000CC" stroke-width="0.25" fill="#FFFFFF" fill-opacity="0.5" style="stroke:#0000CC;" d="M211.549287697573,131.5L211.38570321454,131.168283483131L211.114200005517,130.617729438236L210.842696796494,130.067175393341L210.57119358747,129.516621348446L210.299690378447,128.966067303551L210.028187169424,128.415513258655L209.792377289475,127.937338125112A1.57815000000001,1.57815000000001,0,1,0,208.399167915285,125.112188989284L205.708549690687,126.439055059942A1.57814999999999,1.57814999999999,0,1,0,207.101759064877,129.264204195769L207.337568944826,129.742379329313L207.609072153849,130.292933374208L207.880575362873,130.843487419103L208.152078571896,131.394041463998L208.204331539274,131.5"/>
    <path offsetable="1" class="production_part_notch"   id="J1_notch_9" stroke="#0000CC" stroke-width="0.25" fill="#FFFFFF" fill-opacity="0.5" style="stroke:#0000CC;" d="M189.304162398464,131.5L189.222326902437,131.258920402703L189.015724626043,130.650289722725L188.80912234965,130.041659042747L188.602520073256,129.433028362769L188.395917796863,128.824397682791L188.18931552047,128.215767002813L188.168838454207,128.155443510832A1.57815,1.57815,0,1,0,187.156304138503,125.172613602922L184.315513750017,126.136931998832A1.57815,1.57815,0,1,0,185.328048065722,129.119761906741L185.348525131984,129.180085398722L185.555127408378,129.7887160787L185.761729684771,130.397346758678L185.968331961165,131.005977438656L186.136030023587,131.5"/>
    <path offsetable="1" class="production_part_notch"   id="J1_notch_10" stroke="#0000CC" stroke-width="0.25" fill="#FFFFFF" fill-opacity="0.5" style="stroke:#0000CC;" d="M166.84950794079,131.5L166.73902971952,130.944588475193L166.618637842066,130.339337635136L166.498245964612,129.734086795079L166.377854087157,129.128835955021L166.270037336782,128.586804547947A1.57815,1.57815,0,1,0,165.655502822431,125.497330914677L162.713146981221,126.082601880725A1.57815,1.57815,0,1,0,163.327681495572,129.172075513995L163.435498245948,129.71410692107L163.555890123402,130.319357761127L163.676282000856,130.924608601184L163.790734466165,131.5"/>
    <path offsetable="1" class="production_part_notch"   id="J1_notch_11" stroke="#0000CC" stroke-width="0.25" fill="#FFFFFF" fill-opacity="0.5" style="stroke:#0000CC;" d="M144.29066444413,131.5L144.260654730206,131.042140243526L144.220779451024,130.433761047957L144.180904171842,129.825381852389L144.141028892659,129.21700265682L144.10779707464,128.709983091609A1.57815,1.57815,0,1,0,143.901777217565,125.566727483408L140.908200447849,125.762936871098A1.57815,1.57815,0,1,0,141.114220304924,128.9061924793L141.147452122943,129.41321204451L141.187327402126,130.021591240079L141.227202681308,130.629970435648L141.267077960491,131.238349631217L141.284227431708,131.5"/>
    <path offsetable="1" class="production_part_notch"   id="J1_notch_12" stroke="#0000CC" stroke-width="0.25" fill="#FFFFFF" fill-opacity="0.5" style="stroke:#0000CC;" d="M121.715772568293,131.5L121.73292203951,131.238349631217L121.772797318693,130.629970435648L121.812672597875,130.021591240079L121.852547877058,129.41321204451L121.885779695077,128.9061924793A1.57815,1.57815,0,1,0,122.091799552152,125.762936871098L119.098222782436,125.566727483408A1.57815,1.57815,0,1,0,118.892202925361,128.709983091609L118.858971107342,129.21700265682L118.819095828159,129.825381852389L118.779220548977,130.433761047957L118.739345269794,131.042140243526L118.709335555871,131.5"/>
    <path offsetable="1" class="production_part_notch"   id="J1_notch_13" stroke="#0000CC" stroke-width="0.25" fill="#FFFFFF" fill-opacity="0.5" style="stroke:#0000CC;" d="M99.209265533835,131.5L99.323717999144,130.924608601185L99.444109876598,130.319357761128L99.564501754052,129.71410692107L99.672318504428,129.172075513995A1.57815,1.57815,0,1,0,100.286853018779,126.082601880725L97.344497177569,125.497330914677A1.57815,1.57815,0,1,0,96.729962663218,128.586804547947L96.622145912843,129.128835955022L96.501754035388,129.734086795079L96.381362157934,130.339337635137L96.26097028048,130.944588475194L96.15049205921,131.5"/>
    <path offsetable="1" class="production_part_notch"   id="J1_notch_14" stroke="#0000CC" stroke-width="0.25" fill="#FFFFFF" fill-opacity="0.5" style="stroke:#0000CC;" d="M76.8639699764113,131.5L77.0316680388339,131.005977438657L77.2382703152273,130.397346758678L77.4448725916208,129.7887160787L77.6514748680143,129.180085398722L77.6719519342767,129.119761906741A1.57815,1.57815,0,1,0,78.6844862499816,126.136931998832L75.8436958614963,125.172613602922A1.57815,1.57815,0,1,0,74.8311615457914,128.155443510832L74.810684479529,128.215767002813L74.6040822031355,128.824397682791L74.397479926742,129.433028362769L74.1908776503486,130.041659042747L73.9842753739551,130.650289722725L73.7776730975616,131.258920402703L73.6958376015342,131.5"/>
    <path offsetable="1" class="production_part_notch"   id="J1_notch_15" stroke="#0000CC" stroke-width="0.25" fill="#FFFFFF" fill-opacity="0.5" style="stroke:#0000CC;" d="M54.7956684607278,131.5L54.8479214281065,131.394041463997L55.1194246371296,130.843487419102L55.3909278461527,130.292933374207L55.6624310551758,129.742379329312L55.8982409351244,129.264204195769A1.57815,1.57815,0,1,0,57.2914503093145,126.439055059942L54.6008320847165,125.112188989284A1.57815,1.57815,0,1,0,53.2076227105264,127.937338125112L52.9718128305778,128.415513258655L52.7003096215547,128.96606730355L52.4288064125316,129.516621348445L52.1573032035085,130.06717539334L51.8857999944854,130.617729438235L51.6142967854623,131.16828348313L51.450712302429,131.5"/>
    <path offsetable="1" class="production_part_notch"   id="J1_notch_16" stroke="#0000CC" stroke-width="0.25" fill="#FFFFFF" fill-opacity="0.5" style="stroke:#0000CC;" d="M33.1653394623107,131.5L33.4285386148056,131.106094631648L33.7946867869265,130.558115167262L34.1608349590475,130.010135702876L34.5269831311685,129.462156238491L34.6076777577615,129.341388195315A1.57815,1.57815,0,1,0,36.3577239917733,126.722258916562L33.8633151548657,125.055548217504A1.57815,1.57815,0,1,0,32.1132689208539,127.674677496257L32.0325742942609,127.795445539432L31.6664261221399,128.343425003817L31.300277950019,128.891404468203L30.934129777898,129.439383932589L30.567981605777,129.987363396974L30.2018334336561,130.53534286136L29.8356852615351,131.083322325746L29.5572701407004,131.5"/>
    <path offsetable="1" class="production_part_notch"   id="J1_notch_17" stroke="#0000CC" stroke-width="0.25" fill="#FFFFFF" fill-opacity="0.5" style="stroke:#0000CC;" d="M12.2191704178069,131.5L12.2340171624346,131.483070532387L12.6726391483633,130.982918014688L13.111261134292,130.482765496989L13.5498831202206,129.98261297929L13.9885051061493,129.482460461591L14.1046757182275,129.349993266654A1.57815,1.57815,0,1,0,16.1816150357927,126.981697873095L13.9260956133559,125.003660427795A1.57815,1.57815,0,1,0,11.8491562957906,127.371955821354L11.7329856837125,127.50442301629L11.2943636977838,128.004575533989L10.8557417118551,128.504728051688L10.4171197259264,129.004880569388L9.9784977399977,129.505033087087L9.539875754069,130.005185604786L9.1012537681404,130.505338122485L8.6626317822117,131.005490640184L8.2289587129233,131.5"/>
    <path offsetable="1" class="production_part_notch"   id="J1_notch_18" stroke="#0000CC" stroke-width="0.25" fill="#FFFFFF" fill-opacity="0.5" style="stroke:#0000CC;" d="M0,123.271041287074L0.494509359816298,122.837368217786L0.994661877515399,122.398746231857L1.4948143952145,121.960124245928L1.9949669129136,121.52150226L2.4951194306126,121.082880274071L2.9952719483117,120.644258288142L3.4954244660107,120.205636302214L3.9955769837098,119.767014316285L4.1280441786464,119.650843704207A1.57815,1.57815,0,1,0,6.4963395722051,117.573904386642L4.5183021269051,115.318384964204A1.57815,1.57815,0,1,0,2.1500067333463,117.39532428177L2.0175395384097,117.511494893848L1.5173870207107,117.950116879776L1.0172345030116,118.388738865705L0.517081985312497,118.827360851634L0.0169294676135001,119.265982837562L0,119.28082958219"/>
    <path offsetable="1" class="production_part_notch"   id="J1_notch_19" stroke="#0000CC" stroke-width="0.25" fill="#FFFFFF" fill-opacity="0.5" style="stroke:#0000CC;" d="M0,101.942729859298L0.416677674254498,101.664314738463L0.964657138640099,101.298166566342L1.5126366030257,100.932018394221L2.0606160674113,100.5658702221L2.6085955317969,100.199722049979L3.1565749961825,99.8335738778584L3.7045544605682,99.4674257057375L3.8253225037431,99.3867310791447A1.57815,1.57815,0,1,0,6.4444517824962,97.6366848451331L4.7777410834374,95.1422760082255A1.57815,1.57815,0,1,0,2.1586118046843,96.8923222422371L2.0378437615094,96.9730168688299L1.4898642971238,97.3391650409508L0.941884832738098,97.7053132130717L0.393905368352501,98.0714613851925L0,98.3346605376874"/>
    <path offsetable="1" class="production_part_notch"   id="J1_notch_20" stroke="#0000CC" stroke-width="0.25" fill="#FFFFFF" fill-opacity="0.5" style="stroke:#0000CC;" d="M0,80.0492876975701L0.331716516869101,79.885703214537L0.8822705617643,79.614200005514L1.4328246066594,79.3426967964909L1.9833786515546,79.0711935874678L2.5339326964498,78.7996903784447L3.084486741345,78.5281871694216L3.562661874888,78.292377289473A1.57815,1.57815,0,1,0,6.387811010716,76.8991679152831L5.060944940059,74.2085496906851A1.57815,1.57815,0,1,0,2.235795804231,75.6017590648749L1.757620670688,75.8375689448236L1.2070666257928,76.1090721538466L0.656512580897599,76.3805753628697L0.105958536002499,76.6520785718928L0,76.7043315392714"/>
    <path offsetable="1" class="production_part_notch"   id="J1_notch_21" stroke="#0000CC" stroke-width="0.25" fill="#FFFFFF" fill-opacity="0.5" style="stroke:#0000CC;" d="M0,57.8041623984662L0.241079597296898,57.7223269024387L0.849710277274998,57.5157246260452L1.4583409572531,57.3091223496517L2.0669716372312,57.1025200732582L2.6756023172092,56.8959177968648L3.2842329971873,56.6893155204713L3.3445564891681,56.6688384542089A1.57815,1.57815,0,1,0,6.3273863970776,55.656304138504L5.3630680011682,52.8155137500186A1.57815,1.57815,0,1,0,2.3802380932586,53.8280480657236L2.3199146012778,53.848525131986L1.7112839212997,54.0551274083795L1.1026532413217,54.2617296847729L0.494022561343599,54.4683319611664L0,54.6360300235891"/>
    <path offsetable="1" class="production_part_notch"   id="J1_notch_22" stroke="#0000CC" stroke-width="0.25" fill="#FFFFFF" fill-opacity="0.5" style="stroke:#0000CC;" d="M0,35.3495079407888L0.555411524806,35.2390297195197L1.1606623648635,35.1186378420653L1.7659132049209,34.998245964611L2.3711640449784,34.8778540871566L2.9131954520531,34.7700373367812A1.57815,1.57815,0,1,0,6.0026690853233,34.1555028224304L5.4173981192749,31.2131469812208A1.57815,1.57815,0,1,0,2.3279244860047,31.8276814955716L1.78589307893,31.9354982459469L1.1806422388726,32.0558901234013L0.575391398815099,32.1762820008556L0,32.2907344661638"/>
    <path offsetable="1" class="production_part_notch"   id="J1_notch_23" stroke="#0000CC" stroke-width="0.25" fill="#FFFFFF" fill-opacity="0.5" style="stroke:#0000CC;" d="M0,12.790664444129L0.457859756474199,12.760654730206L1.0662389520429,12.7207794510237L1.6746181476116,12.6809041718413L2.2829973431802,12.641028892659L2.7900169083907,12.6077970746401A1.57815,1.57815,0,1,0,5.9332725165923,12.4017772175651L5.7370631289019,9.4082004478493A1.57815,1.57815,0,1,0,2.5938075207003,9.61422030492425L2.0867879554898,9.64745212294322L1.4784087599211,9.68732740212554L0.870029564352399,9.72720268130786L0.261650368783799,9.76707796049018L0,9.78422743170715"/>
    <path offsetable="1" class="production_part_no_notch_contour" id="J1_outer_contour" stroke="#0000FF" stroke-width="0.25" fill="#FFFFFF" fill-opacity="0.5" style="stroke:#0000FF;" d="M263,9.78422743170704L263,12.7906644441289L263,32.2907344661633L263,35.3495079407882L263,54.6360300235887L263,57.8041623984658L263,76.7043315392714L263,80.04928769757L263,98.3346605376892L263,101.9427298593L263,119.280829582191L263,123.271041287075L263,131.5L254.771041287071,131.5L250.780829582188,131.5L233.442729859302,131.5L229.834660537691,131.5L211.549287697573,131.5L208.204331539274,131.5L189.304162398464,131.5L186.136030023587,131.5L166.84950794079,131.5L163.790734466165,131.5L144.29066444413,131.5L141.284227431708,131.5L121.715772568293,131.5L118.709335555871,131.5L99.209265533835,131.5L96.15049205921,131.5L76.8639699764113,131.5L73.6958376015342,131.5L54.7956684607278,131.5L51.450712302429,131.5L33.1653394623107,131.5L29.5572701407004,131.5L12.2191704178069,131.5L8.2289587129233,131.5L0,131.5L0,123.271041287074L0,119.28082958219L0,101.942729859298L0,98.3346605376874L0,80.0492876975701L0,76.7043315392714L0,57.8041623984662L0,54.6360300235891L0,35.3495079407888L0,32.2907344661638L0,12.790664444129L0,9.78422743170715L0,0L37,0L37,94.4999999999999L226,94.4999999999999L226,0L263,0L263,9.78422743170704Z"/>
  </g>
</g>
<script type="text/javascript">
// <![CDATA[
var slice = {
   "pathspec" : "M1.85,0L28.15,13.15",
   "group" : "joiners",
   "precision" : "1e-05",
   "ribnumber" : "J1",
   "material" : "3mm kiri",
   "slicenumber" : 0,
   "mediumthickness" : "0.3"
}
;
var material = {
   "sheet_x" : 100,
   "sheet_gsm" : 810,
   "ventit" : 0.43,
   "sheet_cols" : 1,
   "panel_x" : 100,
   "laser" : 0,
   "cut_power" : 0.95,
   "air_assist" : 1,
   "dodogbone" : 1,
   "notch_undersize_factor" : 1,
   "keystyle2" : "offset",
   "panel_margin" : 0.3175,
   "sheet_y" : 100,
   "name" : "3mm kiri",
   "sheet_do_panel_splits" : 1,
   "toolname" : "router",
   "dogboneit" : 0.3,
   "mark_z_offset" : 4,
   "rapid_speed" : 20000,
   "keystyle1" : "single",
   "dollars_per_minute" : 1,
   "mark_power" : 0.204,
   "thickness" : 0.3,
   "sheet_do_edge" : 1,
   "cut_speed" : 1900,
   "kerf" : 3,
   "dollars_per_sheet" : 1,
   "sheet_rows" : 1,
   "sheet_swap_time" : 1,
   "panel_y" : 100,
   "color" : "#996633"
}
;
// ]]>
</script>
</svg>
